<svg xmlns="http://www.w3.org/2000/svg" width="158" height="158" fill="none" viewBox="0 0 158 158"><path fill="#FF7979" d="M59.25 103.688V148.125L79 138.25L106.156 153.063V101.219C106.156 101.219 82.7031 117.061 59.25 103.688Z"/><path fill="#FFA95A" d="M111.094 56.7812C111.092 64.6504 108.199 72.2447 102.965 78.1207C97.7305 83.9967 90.5199 87.7448 82.7032 88.6528C74.8987 87.7296 67.7041 83.9749 62.4836 78.1004C57.263 72.226 54.3794 64.6402 54.3794 56.7812C54.3794 48.9223 57.263 41.3365 62.4836 35.462C67.7041 29.5876 74.8987 25.8328 82.7032 24.9097C90.5199 25.8177 97.7305 29.5658 102.965 35.4418C108.199 41.3178 111.092 48.912 111.094 56.7812Z"/><path fill="#FF7979" d="M82.7032 5.08569C69.6282 6.01655 57.3915 11.8673 48.4579 21.4596C39.5242 31.052 34.5571 43.6732 34.5571 56.7813C34.5571 69.8895 39.5242 82.5107 48.4579 92.103C57.3915 101.695 69.6282 107.546 82.7032 108.477C95.7783 107.546 108.015 101.695 116.949 92.103C125.882 82.5107 130.849 69.8895 130.849 56.7813C130.849 43.6732 125.882 31.052 116.949 21.4596C108.015 11.8673 95.7783 6.01655 82.7032 5.08569ZM79.0001 88.8751C72.6526 88.8751 66.4476 86.9928 61.1698 83.4663C55.892 79.9398 51.7784 74.9274 49.3493 69.0631C46.9202 63.1987 46.2847 56.7457 47.523 50.5201C48.7614 44.2946 51.818 38.576 56.3064 34.0876C60.7948 29.5992 66.5133 26.5426 72.7389 25.3042C78.9645 24.0659 85.4175 24.7015 91.2818 27.1306C97.1462 29.5597 102.159 33.6732 105.685 38.951C109.212 44.2288 111.094 50.4338 111.094 56.7813C111.094 65.2931 107.713 73.4563 101.694 79.475C95.6751 85.4938 87.5119 88.8751 79.0001 88.8751Z"/><path fill="#262626" d="M72.3171 45.1608C71.8674 45.6264 71.6186 46.25 71.6242 46.8973C71.6298 47.5446 71.8894 48.1638 72.3472 48.6215C72.8049 49.0793 73.4241 49.3389 74.0714 49.3445C74.7187 49.3502 75.3423 49.1013 75.8079 48.6516L76.5312 47.9283V69.125H74.0625C73.4077 69.125 72.7798 69.3851 72.3168 69.848C71.8538 70.311 71.5938 70.939 71.5938 71.5937C71.5938 72.2485 71.8538 72.8764 72.3168 73.3394C72.7798 73.8024 73.4077 74.0625 74.0625 74.0625H83.9375C84.5923 74.0625 85.2202 73.8024 85.6832 73.3394C86.1462 72.8764 86.4062 72.2485 86.4062 71.5937C86.4062 70.939 86.1462 70.311 85.6832 69.848C85.2202 69.3851 84.5923 69.125 83.9375 69.125H81.4688V41.9687C81.4686 41.4805 81.3238 41.0033 81.0525 40.5974C80.7812 40.1915 80.3957 39.8752 79.9447 39.6884C79.4936 39.5016 78.9973 39.4527 78.5185 39.5479C78.0397 39.6431 77.5999 39.8781 77.2546 40.2233L72.3171 45.1608Z"/><path fill="#262626" d="M44.4375 56.7812C44.4375 63.6171 46.4646 70.2994 50.2623 75.9831C54.0601 81.6669 59.458 86.0969 65.7735 88.7128C72.089 91.3288 79.0383 92.0132 85.7428 90.6796C92.4473 89.346 98.6057 86.0543 103.439 81.2206C108.273 76.387 111.565 70.2285 112.898 63.5241C114.232 56.8196 113.548 49.8702 110.932 43.5548C108.316 37.2393 103.886 31.8414 98.2019 28.0436C92.5181 24.2458 85.8358 22.2187 79 22.2188C69.8367 22.2292 61.0516 25.874 54.5722 32.3534C48.0927 38.8329 44.448 47.6179 44.4375 56.7812ZM108.625 56.7812C108.625 62.6405 106.888 68.3682 103.632 73.24C100.377 78.1118 95.7503 81.9089 90.337 84.1512C84.9237 86.3934 78.9671 86.9801 73.2204 85.837C67.4738 84.6939 62.1951 81.8724 58.052 77.7293C53.9088 73.5862 51.0873 68.3075 49.9442 62.5608C48.8012 56.8141 49.3878 50.8575 51.6301 45.4443C53.8723 40.031 57.6694 35.4042 62.5412 32.149C67.413 28.8937 73.1407 27.1562 79 27.1562C86.8544 27.1647 94.3847 30.2887 99.9386 35.8426C105.493 41.3965 108.617 48.9268 108.625 56.7812Z"/><path fill="#262626" d="M95.6664 10.2898C96.4301 10.563 97.1838 10.8543 97.9278 11.1637C98.5321 11.4158 99.2118 11.4175 99.8174 11.1684C100.423 10.9193 100.905 10.4398 101.157 9.8355C101.409 9.23116 101.411 8.55144 101.162 7.94586C100.912 7.34028 100.433 6.85846 99.8287 6.60638C99.0058 6.26404 98.1746 5.94228 97.3353 5.64109C97.03 5.53151 96.7062 5.48313 96.3823 5.4987C96.0583 5.51427 95.7406 5.59349 95.4473 5.73184C95.154 5.87019 94.8908 6.06495 94.6727 6.30502C94.4547 6.54509 94.2861 6.82575 94.1765 7.13098C94.0669 7.43622 94.0185 7.76005 94.0341 8.08398C94.0497 8.40792 94.1289 8.72562 94.2672 9.01893C94.4056 9.31225 94.6004 9.57545 94.8404 9.7935C95.0805 10.0115 95.3611 10.1802 95.6664 10.2898Z"/><path fill="#262626" d="M133.312 56.7813C133.352 47.4027 130.944 38.1761 126.328 30.0121C121.712 21.8482 115.047 15.0291 106.991 10.228C106.713 10.0508 106.402 9.93109 106.077 9.87583C105.752 9.82057 105.42 9.83092 105.099 9.90628C104.778 9.98163 104.475 10.1205 104.209 10.3146C103.943 10.5087 103.718 10.7542 103.548 11.0366C103.378 11.3189 103.266 11.6325 103.22 11.9587C103.173 12.2849 103.192 12.6172 103.275 12.936C103.359 13.2548 103.505 13.5536 103.706 13.8148C103.907 14.0761 104.159 14.2944 104.445 14.457C114.685 20.6076 122.349 30.2608 126.017 41.6286C129.685 52.9964 129.109 65.3084 124.396 76.2842C119.683 87.26 111.152 96.1558 100.383 101.324C89.6136 106.492 77.3364 107.582 65.8252 104.392C54.314 101.203 44.3487 93.9494 37.7753 83.9758C31.2018 74.0022 28.4656 61.9843 30.0735 50.148C31.6813 38.3117 37.5243 27.4592 46.52 19.6005C55.5158 11.7419 67.0549 7.40964 78.9998 7.40625C82.2236 7.40512 85.4398 7.71682 88.6033 8.33697C88.9233 8.40477 89.2536 8.4083 89.575 8.34734C89.8964 8.28639 90.2024 8.16217 90.4754 7.98191C90.7484 7.80165 90.9828 7.56894 91.165 7.2973C91.3473 7.02566 91.4737 6.72051 91.537 6.39958C91.6003 6.07865 91.5992 5.74834 91.5338 5.42784C91.4683 5.10734 91.3398 4.80304 91.1557 4.53263C90.9717 4.26222 90.7357 4.03109 90.4615 3.85266C90.1874 3.67424 89.8805 3.55208 89.5587 3.49329C77.1818 1.03441 64.3349 2.96317 53.2256 8.94812C42.1164 14.9331 33.4386 24.6005 28.6834 36.289C23.9282 47.9776 23.3926 60.9574 27.1686 72.998C30.9447 85.0386 38.7965 95.3881 49.3748 102.268V153.063C49.3748 153.491 49.4861 153.912 49.698 154.284C49.9099 154.656 50.215 154.967 50.5834 155.186C50.9517 155.404 51.3706 155.524 51.7989 155.531C52.2272 155.539 52.6501 155.435 53.0261 155.23L78.9998 141.062L104.974 155.23C105.35 155.435 105.773 155.539 106.201 155.531C106.629 155.524 107.048 155.404 107.416 155.186C107.785 154.967 108.09 154.656 108.302 154.284C108.514 153.912 108.625 153.491 108.625 153.063V102.268C116.199 97.3386 122.424 90.597 126.735 82.6542C131.046 74.7114 133.307 65.8185 133.312 56.7813V56.7813ZM103.687 148.903L80.1824 136.082C79.82 135.885 79.4138 135.781 79.0011 135.781C78.5883 135.781 78.1822 135.885 77.8198 136.082L54.3123 148.903V105.134C61.9522 109.051 70.4144 111.094 78.9998 111.094C87.5853 111.094 96.0475 109.051 103.687 105.134V148.903Z"/></svg>