<svg width="299" height="299" viewBox="0 0 299 299" fill="none" xmlns="http://www.w3.org/2000/svg">
<path d="M76.1492 269.393L70.5638 266.17C70.4639 266.138 70.3767 266.075 70.3149 265.99C70.253 265.905 70.2197 265.803 70.2197 265.698C70.2197 265.593 70.253 265.49 70.3149 265.405C70.3767 265.32 70.4639 265.257 70.5638 265.225L110.743 242.029C110.849 241.968 110.94 241.887 111.013 241.789C111.085 241.692 111.137 241.581 111.165 241.462C111.193 241.344 111.197 241.222 111.176 241.102C111.155 240.982 111.109 240.868 111.042 240.767C109.788 238.796 109.279 236.442 109.607 234.129C110.139 230.487 112.807 227.115 117.118 224.627C121.777 221.936 127.936 220.441 134.46 220.441C140.984 220.441 147.144 221.918 151.802 224.627C156.718 227.461 159.427 231.325 159.427 235.505C159.427 239.685 156.724 243.548 151.802 246.388C147.156 249.073 141.002 250.574 134.46 250.574C131.829 250.581 129.203 250.333 126.62 249.833C126.025 249.741 125.416 249.84 124.88 250.114L118.619 253.702C118.082 253.973 117.472 254.065 116.879 253.965L112.657 253.008C112.064 252.908 111.454 253.001 110.917 253.271L109.643 254.007C109.404 254.164 109.202 254.373 109.053 254.619C108.904 254.864 108.812 255.139 108.782 255.424L108.644 258.54C108.616 258.825 108.524 259.101 108.375 259.346C108.226 259.591 108.024 259.8 107.783 259.957L106.181 260.884C105.631 261.175 105.034 261.363 104.417 261.44L100.685 261.769C100.07 261.842 99.4723 262.024 98.921 262.307L97.3841 263.168C97.149 263.314 96.9587 263.521 96.8342 263.768C96.7097 264.015 96.6558 264.292 96.6785 264.567L96.7742 265.309C96.7959 265.585 96.7423 265.861 96.6191 266.108C96.4958 266.356 96.3076 266.565 96.0745 266.714L91.434 269.393C90.889 269.681 90.286 269.843 89.6699 269.866H77.9133C77.2972 269.843 76.6942 269.681 76.1492 269.393ZM140.614 229.459C139.243 229.43 137.888 229.746 136.673 230.38C135.931 230.81 135.477 231.33 135.477 231.779C135.477 232.227 135.925 232.754 136.673 233.184C137.898 233.79 139.247 234.105 140.614 234.105C141.98 234.105 143.329 233.79 144.554 233.184C145.296 232.754 145.75 232.227 145.75 231.779C145.75 231.33 145.302 230.81 144.554 230.38C143.339 229.746 141.984 229.429 140.614 229.459Z" fill="#E0E0E0"/>
<path d="M224.633 246.52C251.556 246.52 273.382 233.92 273.382 218.378C273.382 202.835 251.556 190.236 224.633 190.236C197.709 190.236 175.884 202.835 175.884 218.378C175.884 233.92 197.709 246.52 224.633 246.52Z" fill="#E0E0E0"/>
<path d="M30.7674 230.571C30.5989 230.572 30.4333 230.526 30.289 230.439C30.1424 230.357 30.0206 230.238 29.9364 230.092C29.8522 229.947 29.8087 229.782 29.8106 229.614V190.331C29.8282 189.936 29.9406 189.551 30.1384 189.209C30.3362 188.866 30.6134 188.577 30.9468 188.364L42.5181 181.684C42.7008 181.567 42.9121 181.502 43.1291 181.495C43.3461 181.489 43.5607 181.542 43.75 181.648C43.8947 181.729 44.022 181.838 44.1246 181.969C44.2272 182.099 44.3031 182.248 44.348 182.408L45.2809 185.523C45.2986 185.594 45.332 185.66 45.3786 185.716C45.4252 185.771 45.4837 185.816 45.55 185.846C45.6181 185.871 45.691 185.879 45.7628 185.869C45.8346 185.86 45.9031 185.834 45.9626 185.793L71.0308 171.327C71.1718 171.233 71.3334 171.174 71.502 171.155C71.6706 171.136 71.8412 171.158 71.9995 171.219L72.1251 171.285C72.27 171.39 72.3859 171.53 72.4622 171.692C72.5385 171.855 72.5727 172.033 72.5616 172.212V205.275C72.543 205.67 72.4302 206.055 72.2325 206.397C72.0349 206.739 71.7581 207.029 71.4254 207.243L31.2458 230.439C31.1011 230.525 30.9358 230.571 30.7674 230.571ZM43.1759 182.288C43.0827 182.29 42.9917 182.316 42.9128 182.366L31.3415 189.04C31.1262 189.183 30.948 189.376 30.8212 189.602C30.6862 189.822 30.61 190.073 30.6 190.331V229.632C30.5996 229.661 30.6072 229.69 30.6219 229.715C30.6367 229.741 30.658 229.761 30.6837 229.775C30.7089 229.791 30.7379 229.799 30.7674 229.799C30.7969 229.799 30.8259 229.791 30.8511 229.775L71.0248 206.573C71.2376 206.429 71.415 206.238 71.5434 206.015C71.6719 205.793 71.7481 205.544 71.7663 205.287V172.224C71.7768 172.133 71.7534 172.041 71.7005 171.967L71.6527 171.937C71.5676 171.946 71.4857 171.975 71.4135 172.021L46.3513 186.474C46.1885 186.573 46.0057 186.634 45.8163 186.652C45.627 186.671 45.4358 186.647 45.2569 186.582C45.0795 186.509 44.9213 186.396 44.7947 186.252C44.6681 186.108 44.5766 185.936 44.5274 185.751L43.5885 182.635C43.5578 182.511 43.4807 182.404 43.3732 182.336C43.3132 182.302 43.2449 182.285 43.1759 182.288Z" fill="#FF7979"/>
<path d="M84.7551 213.964L84.4501 213.791L84.0973 213.588L83.7864 213.408C83.5316 213.24 83.313 213.023 83.1436 212.769C82.9741 212.516 82.8572 212.231 82.7997 211.931L78.6137 180.321C78.6027 180.109 78.543 179.903 78.4392 179.719C78.3355 179.534 78.1906 179.376 78.0157 179.256L77.4775 178.945C77.2656 178.839 77.0291 178.791 76.7925 178.807C76.5558 178.822 76.3278 178.901 76.132 179.035L54.4186 191.36C54.1726 191.502 53.899 191.589 53.6162 191.616C53.3335 191.643 53.0483 191.608 52.7801 191.515C52.6178 191.372 52.4786 191.205 52.3674 191.019L51.6678 189.823C51.4951 189.522 51.2453 189.272 50.9442 189.099L50.406 188.788C50.1049 188.615 49.7636 188.524 49.4163 188.524C49.069 188.524 48.7277 188.615 48.4266 188.788L38.452 194.553C37.96 194.872 37.5645 195.318 37.3084 195.845C37.0522 196.373 36.9452 196.96 36.9988 197.543L42.028 235.283C42.0903 235.655 42.2286 236.01 42.4344 236.326C42.6402 236.642 42.909 236.912 43.224 237.119L44.1928 237.681C44.3743 237.789 44.5797 237.851 44.7908 237.86C44.9621 237.866 45.1318 237.825 45.2811 237.741L85.3471 214.054C85.2493 214.092 85.143 214.104 85.0391 214.089C84.9352 214.073 84.8372 214.03 84.7551 213.964Z" fill="#FF7979"/>
<path opacity="0.25" d="M84.7552 213.964L83.7925 213.408C83.5361 213.241 83.3161 213.025 83.1455 212.771C82.975 212.517 82.8574 212.231 82.7998 211.931L78.6138 180.321C78.613 180.091 78.5482 179.867 78.4267 179.672C78.3052 179.478 78.1318 179.321 77.9261 179.22C77.7204 179.119 77.4906 179.077 77.2623 179.099C77.0341 179.121 76.8167 179.207 76.6344 179.346L55.1064 191.76C54.6511 192.023 54.1102 192.094 53.6024 191.959C53.0946 191.823 52.6613 191.492 52.3975 191.037L51.6978 189.841C51.5678 189.615 51.3945 189.417 51.1878 189.259C50.9812 189.1 50.7452 188.984 50.4936 188.917C50.2419 188.85 49.9794 188.833 49.7212 188.867C49.463 188.901 49.2142 188.987 48.9889 189.117L38.9903 194.888C38.5036 195.203 38.1114 195.644 37.8555 196.164C37.5996 196.684 37.4896 197.264 37.5372 197.842L42.5185 235.211C42.5753 235.512 42.6919 235.798 42.8614 236.053C43.0309 236.308 43.2498 236.526 43.5052 236.694L44.474 237.25C44.5595 237.312 44.6599 237.35 44.7649 237.361C44.87 237.371 44.9759 237.354 45.072 237.31L85.3652 214.048C85.2655 214.091 85.1561 214.105 85.0486 214.091C84.9412 214.076 84.8398 214.032 84.7552 213.964Z" fill="black"/>
<path opacity="0.25" d="M43.499 236.67L44.4678 237.227C44.5533 237.288 44.6537 237.326 44.7587 237.337C44.8637 237.347 44.9697 237.33 45.0658 237.286L85.359 214.024C85.2629 214.068 85.157 214.085 85.0519 214.075C84.9469 214.064 84.8465 214.026 84.761 213.964L83.7982 213.408C83.5427 213.247 83.3245 213.033 83.1584 212.78L42.8711 236.042C43.0335 236.294 43.2475 236.508 43.499 236.67Z" fill="black"/>
<path d="M43.7324 200.772V233.579C43.737 233.657 43.7599 233.733 43.7994 233.8C43.8389 233.868 43.8938 233.925 43.9597 233.967L44.2108 234.117C44.2803 234.152 44.3572 234.17 44.4351 234.17C44.513 234.17 44.5898 234.152 44.6593 234.117L81.0058 213.127C81.0716 213.085 81.1265 213.027 81.166 212.96C81.2055 212.892 81.2284 212.816 81.233 212.738V179.932C81.2284 179.854 81.2055 179.778 81.166 179.71C81.1265 179.643 81.0716 179.586 81.0058 179.543L80.7307 179.4C80.6612 179.365 80.5844 179.346 80.5064 179.346C80.4285 179.346 80.3517 179.365 80.2822 179.4L43.9597 200.384C43.8938 200.426 43.8389 200.483 43.7994 200.551C43.7599 200.618 43.737 200.694 43.7324 200.772Z" fill="#FAFAFA"/>
<path d="M81.2265 179.872C81.2291 179.846 81.2291 179.82 81.2265 179.794V179.753C81.2097 179.711 81.1854 179.672 81.1548 179.639C81.1381 179.614 81.118 179.592 81.095 179.573L81.0471 179.543L80.7302 179.4C80.6607 179.365 80.5839 179.346 80.506 179.346C80.428 179.346 80.3512 179.365 80.2817 179.4L43.9592 200.384C43.893 200.424 43.8393 200.482 43.8037 200.551L44.5034 200.958C44.5405 200.89 44.5939 200.832 44.6589 200.79L81.0053 179.806C81.1129 179.741 81.2026 179.776 81.2265 179.872Z" fill="#E0E0E0"/>
<path d="M44.5994 234.141C44.5037 234.141 44.4379 234.105 44.4379 233.985V201.179C44.4393 201.101 44.4621 201.024 44.5037 200.958L43.8041 200.551C43.7606 200.617 43.7377 200.694 43.7383 200.773V233.579C43.7402 233.657 43.7614 233.733 43.8 233.801C43.8386 233.869 43.8934 233.926 43.9596 233.968L44.2107 234.117C44.3321 234.176 44.4717 234.184 44.5994 234.141Z" fill="#E0E0E0"/>
<g opacity="0.1">
<path opacity="0.1" d="M44.5994 234.141C44.5037 234.141 44.4379 234.105 44.4379 233.985V201.179C44.4393 201.101 44.4621 201.024 44.5037 200.958L43.8041 200.551C43.7606 200.617 43.7377 200.694 43.7383 200.773V233.579C43.7402 233.657 43.7614 233.733 43.8 233.801C43.8386 233.869 43.8934 233.926 43.9596 233.968L44.2107 234.117C44.3321 234.176 44.4717 234.184 44.5994 234.141Z" fill="black"/>
</g>
<path d="M86.113 182.611C86.1357 182.399 86.1011 182.184 86.0128 181.989C85.9244 181.795 85.7856 181.627 85.6107 181.505L85.1143 181.218C84.9222 181.13 84.7103 181.095 84.5002 181.116C84.2902 181.137 84.0894 181.214 83.9183 181.337L47.0457 202.614C46.544 202.942 46.1269 203.383 45.8287 203.903C45.5304 204.423 45.3593 205.006 45.3294 205.604V236.742C45.3407 236.849 45.3227 236.958 45.2775 237.055C45.2322 237.153 45.1613 237.237 45.0723 237.298L45.3174 237.723L85.8559 214.323C85.9438 214.261 86.0135 214.177 86.0577 214.079C86.1019 213.981 86.1189 213.873 86.107 213.767L86.113 182.611Z" fill="#FF7979"/>
<path opacity="0.25" d="M45.3174 237.711C45.4815 237.608 45.6145 237.463 45.7019 237.29C45.7894 237.117 45.828 236.923 45.8137 236.73V205.874C45.845 205.275 46.0167 204.693 46.3149 204.174C46.613 203.654 47.0293 203.212 47.53 202.884L84.3847 181.607C85.3355 181.063 86.107 181.505 86.107 182.599V213.743C86.1189 213.85 86.1019 213.958 86.0577 214.056C86.0135 214.154 85.9437 214.238 85.8558 214.299L45.3174 237.711Z" fill="white"/>
<path d="M74.3913 209.037L70.307 205.58C70.0439 205.359 69.6073 205.58 69.3382 206.124L67.8552 208.971C67.5921 209.479 67.1675 209.724 66.9044 209.527L63.424 206.908C63.1609 206.704 62.7303 206.956 62.4672 207.458L57.0254 217.929V221.517L74.3674 211.494L74.3913 209.037ZM72.3163 203.188C72.7933 202.848 73.1832 202.399 73.4544 201.88C73.7256 201.36 73.8704 200.784 73.877 200.198C73.877 199.05 73.1834 198.518 72.3163 199.002C71.8407 199.344 71.4522 199.792 71.1821 200.312C70.912 200.831 70.7679 201.407 70.7615 201.992C70.7615 203.158 71.4551 203.684 72.3163 203.188ZM76.3707 192.466L55.052 204.785C54.7538 204.999 54.5097 205.279 54.3394 205.604C54.1691 205.929 54.0773 206.29 54.0713 206.656V225.894C54.0713 226.612 54.5138 226.947 55.052 226.636L76.3707 214.311C76.6682 214.097 76.9113 213.816 77.0806 213.491C77.2499 213.166 77.3406 212.806 77.3454 212.439V193.201C77.3454 192.484 76.9089 192.149 76.3707 192.466ZM75.6292 212.326L55.7935 223.795V206.77L75.6292 195.3V212.326Z" fill="white"/>
<path d="M30.7674 161.866C30.5992 161.865 30.4344 161.819 30.289 161.735C30.1432 161.652 30.022 161.532 29.938 161.387C29.8539 161.242 29.8099 161.077 29.8106 160.91V121.621C29.8227 121.226 29.936 120.841 30.1395 120.503C30.3327 120.158 30.6105 119.868 30.9468 119.66L42.5181 112.98C42.7002 112.862 42.9112 112.795 43.1282 112.788C43.3452 112.781 43.5601 112.833 43.7499 112.938C44.0409 113.103 44.2556 113.376 44.3479 113.697L45.2808 116.819C45.2985 116.89 45.3319 116.955 45.3785 117.011C45.4251 117.067 45.4837 117.112 45.5499 117.142C45.6182 117.165 45.6909 117.172 45.7625 117.163C45.834 117.154 45.9024 117.128 45.9625 117.088L71.0307 102.623C71.1711 102.527 71.3328 102.467 71.5017 102.448C71.6706 102.429 71.8415 102.452 71.9995 102.515L72.125 102.581C72.2698 102.685 72.3859 102.824 72.4622 102.985C72.5386 103.146 72.5728 103.324 72.5616 103.502V136.565C72.5445 136.96 72.4323 137.345 72.2345 137.688C72.0366 138.03 71.7591 138.32 71.4254 138.532L31.2517 161.735C31.1042 161.819 30.9374 161.865 30.7674 161.866ZM43.1759 113.578C43.0822 113.582 42.9913 113.611 42.9127 113.662L31.3414 120.335C31.1262 120.479 30.9479 120.672 30.8212 120.897C30.6861 121.115 30.6099 121.365 30.5999 121.621V160.91C30.6002 160.939 30.6081 160.968 30.6229 160.993C30.6377 161.018 30.6589 161.039 30.6843 161.053C30.7097 161.068 30.7385 161.076 30.7677 161.076C30.797 161.075 30.8257 161.068 30.8511 161.053L71.0247 137.857C71.2377 137.711 71.4151 137.519 71.5435 137.296C71.6719 137.072 71.748 136.822 71.7662 136.565V103.502C71.7757 103.411 71.7524 103.32 71.7005 103.244H71.6526C71.5675 103.254 71.4856 103.282 71.4134 103.328L46.3512 117.77C46.1885 117.868 46.0057 117.929 45.8163 117.948C45.6269 117.966 45.4358 117.942 45.2569 117.878C45.0802 117.803 44.9226 117.69 44.7962 117.546C44.6698 117.402 44.5778 117.231 44.5273 117.046L43.5885 113.925C43.5575 113.803 43.4803 113.698 43.3732 113.632C43.3136 113.596 43.2453 113.577 43.1759 113.578Z" fill="#FF7979"/>
<path d="M84.7544 145.38L84.4494 145.2L84.0966 144.997L83.7856 144.818C83.5304 144.65 83.3115 144.433 83.142 144.18C82.9725 143.926 82.8558 143.64 82.7989 143.341L78.6129 111.73C78.6015 111.519 78.5416 111.313 78.4379 111.128C78.3342 110.944 78.1895 110.786 78.0149 110.666L77.4767 110.355C77.2647 110.248 77.0277 110.2 76.7908 110.217C76.5539 110.234 76.326 110.315 76.1312 110.451L54.4179 122.793C54.1719 122.935 53.8982 123.023 53.6155 123.049C53.3328 123.076 53.0476 123.042 52.7793 122.949C52.6169 122.803 52.4777 122.634 52.3667 122.446L51.6671 121.25C51.4963 120.948 51.2461 120.698 50.9435 120.527L50.4053 120.216C50.1072 120.042 49.769 119.949 49.424 119.946C49.079 119.943 48.7391 120.03 48.4379 120.198L38.4513 125.969C37.9645 126.284 37.5723 126.725 37.3164 127.245C37.0605 127.765 36.9505 128.345 36.9981 128.923L42.0273 166.669C42.0902 167.04 42.2289 167.395 42.4346 167.711C42.6404 168.027 42.9088 168.297 43.2233 168.504L44.1921 169.061C44.3731 169.171 44.5785 169.234 44.7901 169.246C44.9614 169.252 45.1311 169.211 45.2804 169.126L85.3464 145.44C85.2511 145.482 85.1463 145.499 85.0424 145.489C84.9386 145.478 84.8393 145.441 84.7544 145.38Z" fill="#FF7979"/>
<path opacity="0.25" d="M84.7542 145.38L83.7914 144.818C83.5339 144.652 83.313 144.436 83.1422 144.182C82.9715 143.928 82.8546 143.641 82.7987 143.341L78.6127 111.73C78.6097 111.502 78.5435 111.279 78.4216 111.086C78.2997 110.893 78.1267 110.737 77.9218 110.636C77.7169 110.535 77.4881 110.493 77.2607 110.514C77.0333 110.535 76.8162 110.619 76.6333 110.756L55.0993 123.188C54.8741 123.319 54.6252 123.404 54.367 123.438C54.1088 123.473 53.8463 123.456 53.5947 123.389C53.343 123.321 53.1071 123.205 52.9004 123.046C52.6938 122.888 52.5204 122.69 52.3904 122.464L51.6907 121.268C51.4279 120.813 50.9951 120.48 50.4872 120.343C49.9793 120.206 49.4379 120.277 48.9818 120.539L38.9832 126.31C38.4913 126.628 38.0958 127.075 37.8396 127.602C37.5835 128.129 37.4764 128.716 37.5301 129.3L42.5114 166.669C42.5683 166.968 42.685 167.254 42.8545 167.507C43.024 167.761 43.2429 167.978 43.4981 168.146L44.4669 168.708C44.5524 168.77 44.6528 168.808 44.7578 168.818C44.8629 168.829 44.9688 168.811 45.0649 168.768L85.3581 145.505C85.2556 145.541 85.1451 145.549 85.0387 145.526C84.9323 145.504 84.8339 145.454 84.7542 145.38Z" fill="black"/>
<path opacity="0.25" d="M43.4981 168.08L44.4669 168.642C44.5524 168.704 44.6528 168.742 44.7578 168.753C44.8629 168.763 44.9688 168.746 45.0649 168.702L85.3582 145.44C85.2621 145.483 85.1561 145.501 85.0511 145.49C84.9461 145.48 84.8457 145.442 84.7601 145.38L83.7974 144.818C83.5432 144.667 83.3248 144.463 83.1575 144.22L42.8643 167.44C43.0265 167.697 43.2428 167.915 43.4981 168.08Z" fill="black"/>
<path d="M43.7314 132.158V164.97C43.736 165.048 43.759 165.124 43.7985 165.192C43.8379 165.259 43.8929 165.317 43.9587 165.359L44.2098 165.502C44.2794 165.538 44.3562 165.556 44.4341 165.556C44.512 165.556 44.5888 165.538 44.6583 165.502L81.0048 144.519C81.0706 144.476 81.1255 144.419 81.165 144.352C81.2045 144.284 81.2275 144.208 81.232 144.13V111.348C81.2275 111.269 81.2045 111.194 81.165 111.126C81.1255 111.058 81.0706 111.001 81.0048 110.959L80.7536 110.809C80.6841 110.774 80.6073 110.756 80.5294 110.756C80.4515 110.756 80.3746 110.774 80.3051 110.809L43.9587 131.793C43.8959 131.833 43.8429 131.887 43.8035 131.95C43.7642 132.013 43.7396 132.084 43.7314 132.158Z" fill="#FAFAFA"/>
<path d="M81.2265 111.288C81.2292 111.26 81.2292 111.232 81.2265 111.204V111.162C81.207 111.122 81.1829 111.084 81.1548 111.048C81.138 111.026 81.1178 111.006 81.095 110.989H81.0471L80.796 110.839C80.7265 110.804 80.6497 110.786 80.5717 110.786C80.4938 110.786 80.417 110.804 80.3475 110.839L43.9592 131.793C43.8943 131.835 43.8409 131.893 43.8037 131.961L44.5034 132.367C44.5405 132.299 44.5939 132.242 44.6589 132.2L81.0053 111.228C81.1129 111.156 81.2026 111.186 81.2265 111.288Z" fill="#E0E0E0"/>
<path d="M44.5984 165.55C44.5027 165.55 44.437 165.514 44.437 165.395V132.588C44.4392 132.51 44.4619 132.434 44.5027 132.367L43.8031 131.96C43.7602 132.026 43.7374 132.103 43.7373 132.182V164.994C43.7391 165.071 43.7603 165.147 43.799 165.214C43.8377 165.28 43.8925 165.337 43.9586 165.377L44.2097 165.526C44.2694 165.556 44.3347 165.574 44.4016 165.578C44.4684 165.583 44.5354 165.573 44.5984 165.55Z" fill="#E0E0E0"/>
<g opacity="0.1">
<path opacity="0.1" d="M44.5984 165.55C44.5027 165.55 44.437 165.514 44.437 165.395V132.588C44.4392 132.51 44.4619 132.434 44.5027 132.367L43.8031 131.96C43.7602 132.026 43.7374 132.103 43.7373 132.182V164.994C43.7391 165.071 43.7603 165.147 43.799 165.214C43.8377 165.28 43.8925 165.337 43.9586 165.377L44.2097 165.526C44.2694 165.556 44.3347 165.574 44.4016 165.578C44.4684 165.583 44.5354 165.573 44.5984 165.55Z" fill="black"/>
</g>
<path d="M86.112 114.027C86.1359 113.813 86.1018 113.597 86.0134 113.402C85.925 113.206 85.7856 113.038 85.6097 112.915L85.1134 112.627C84.9207 112.541 84.7085 112.507 84.4984 112.529C84.2884 112.551 84.0879 112.628 83.9174 112.753L47.0447 134.03C46.542 134.356 46.1242 134.798 45.8258 135.318C45.5273 135.838 45.3569 136.421 45.3284 137.02V168.164C45.3397 168.271 45.3218 168.379 45.2765 168.477C45.2312 168.575 45.1603 168.659 45.0713 168.72L45.3165 169.144L85.8549 145.739C85.9428 145.677 86.0125 145.593 86.0567 145.495C86.1009 145.397 86.118 145.289 86.106 145.183L86.112 114.027Z" fill="#FF7979"/>
<path opacity="0.25" d="M45.3164 169.126C45.4805 169.024 45.6135 168.878 45.701 168.705C45.7884 168.532 45.8271 168.339 45.8127 168.146V137.289C45.8436 136.691 46.0151 136.108 46.3133 135.589C46.6115 135.069 47.028 134.627 47.529 134.299L84.3838 113.022C85.3346 112.472 86.106 112.914 86.106 114.015V145.153C86.1179 145.259 86.1009 145.367 86.0567 145.465C86.0125 145.563 85.9428 145.647 85.8548 145.709L45.3164 169.126Z" fill="white"/>
<path d="M75.2827 133.844L65.332 139.591C64.8297 136.762 62.7486 135.62 60.261 137.055C57.3906 138.712 55.0703 143.149 55.0703 146.97C55.0703 150.791 57.3906 152.549 60.261 150.893C62.7666 149.446 64.8656 145.858 65.344 142.425L71.019 139.148V141.726C71.019 142.509 71.4974 142.874 72.0894 142.533C72.4136 142.3 72.6788 141.994 72.8636 141.64C73.0484 141.286 73.1478 140.893 73.1538 140.494V137.928L75.2827 136.696C75.6087 136.464 75.8756 136.159 76.0615 135.805C76.2475 135.45 76.3474 135.057 76.3531 134.657C76.3531 133.862 75.8747 133.503 75.2827 133.844ZM60.261 148.513C58.3773 149.595 56.8583 148.447 56.8583 145.942C56.8583 143.436 58.3773 140.524 60.261 139.435C62.1447 138.347 63.6636 139.501 63.6636 142.007C63.6636 144.512 62.1387 147.425 60.261 148.513Z" fill="#FAFAFA"/>
<path d="M30.7673 93.1564C30.5997 93.1566 30.4349 93.1133 30.2889 93.0308C30.1436 92.9476 30.0228 92.8274 29.9388 92.6825C29.8548 92.5376 29.8105 92.3731 29.8105 92.2055V52.917C29.8228 52.5203 29.936 52.1334 30.1394 51.7927C30.3362 51.4503 30.6132 51.1609 30.9467 50.9495L42.518 44.2519C42.7041 44.1402 42.917 44.0811 43.134 44.0811C43.351 44.0811 43.5639 44.1402 43.7499 44.2519C43.8946 44.333 44.0219 44.4418 44.1245 44.5721C44.2271 44.7024 44.3031 44.8517 44.3479 45.0114L45.2808 48.127C45.2985 48.1983 45.3318 48.2648 45.3784 48.3217C45.4249 48.3786 45.4835 48.4244 45.5499 48.4559C45.6182 48.479 45.6909 48.4862 45.7625 48.4768C45.834 48.4675 45.9024 48.4419 45.9625 48.4021L71.0307 33.9364C71.1714 33.8417 71.3328 33.7819 71.5013 33.7621C71.6698 33.7424 71.8406 33.7632 71.9994 33.8228L72.125 33.8886C72.2699 33.9939 72.3858 34.134 72.4622 34.2961C72.5385 34.4581 72.5727 34.6367 72.5616 34.8155V67.8789C72.544 68.274 72.4315 68.659 72.2338 69.0014C72.036 69.3438 71.7587 69.6336 71.4254 69.8463L31.2517 93.0487C31.1021 93.1253 30.9353 93.1623 30.7673 93.1564ZM43.1758 44.8499C43.0833 44.8551 42.9932 44.8817 42.9127 44.9277L31.3414 51.6313C31.1263 51.7727 30.948 51.9633 30.8212 52.1874C30.6861 52.4076 30.6099 52.6588 30.5999 52.917V92.2055C30.6002 92.2348 30.6081 92.2635 30.6229 92.2887C30.6377 92.314 30.6589 92.3349 30.6843 92.3494C30.7097 92.364 30.7385 92.3716 30.7677 92.3715C30.797 92.3714 30.8257 92.3637 30.8511 92.3491L71.0247 69.1467C71.2382 69.0031 71.416 68.8126 71.5445 68.5898C71.673 68.3669 71.7489 68.1176 71.7662 67.861V34.7976C71.7757 34.7067 71.7523 34.6155 71.7004 34.5404H71.6526C71.5667 34.546 71.484 34.575 71.4134 34.6241L46.3512 49.0658C46.1886 49.1651 46.0055 49.2258 45.8158 49.2434C45.6262 49.261 45.435 49.2351 45.2569 49.1675C45.0789 49.0954 44.9203 48.9827 44.7936 48.8384C44.6669 48.694 44.5757 48.5221 44.5273 48.3363L43.5885 45.2207C43.5575 45.0988 43.4803 44.9937 43.3732 44.9277C43.3162 44.8834 43.2477 44.8564 43.1758 44.8499Z" fill="#FF7979"/>
<path d="M84.7551 76.7892L84.4501 76.6157L84.0973 76.4124L83.7864 76.233C83.5316 76.0652 83.313 75.848 83.1435 75.5943C82.9741 75.3406 82.8572 75.0556 82.7997 74.7559L78.6137 43.1457C78.6022 42.9335 78.5424 42.7267 78.4387 42.5411C78.3351 42.3556 78.1904 42.1963 78.0157 42.0753L77.4775 41.7703C77.266 41.6624 77.0292 41.6138 76.7923 41.6296C76.5555 41.6454 76.3273 41.725 76.132 41.86L54.4186 54.2027C54.1726 54.3446 53.899 54.432 53.6162 54.4588C53.3335 54.4856 53.0483 54.4513 52.7801 54.3582C52.6162 54.2142 52.4769 54.0445 52.3674 53.8558L51.6678 52.6598C51.4951 52.3587 51.2453 52.109 50.9442 51.9363L50.406 51.6253C50.1049 51.4522 49.7636 51.361 49.4163 51.361C49.069 51.361 48.7277 51.4522 48.4266 51.6253L38.452 57.408C37.96 57.7263 37.5645 58.1732 37.3084 58.7003C37.0522 59.2273 36.9452 59.8144 36.9988 60.398L42.028 98.072C42.0903 98.4438 42.2286 98.7988 42.4344 99.1147C42.6402 99.4306 42.909 99.7006 43.224 99.9078L44.2526 100.464C44.4341 100.572 44.6395 100.634 44.8506 100.643C45.0219 100.649 45.1916 100.608 45.3409 100.524L85.4069 76.837C85.3054 76.8931 85.1896 76.9185 85.0739 76.91C84.9582 76.9015 84.8474 76.8595 84.7551 76.7892Z" fill="#FF7979"/>
<path opacity="0.25" d="M84.7554 76.7892L83.7926 76.233C83.5363 76.0663 83.3162 75.8495 83.1457 75.5957C82.9751 75.3419 82.8575 75.0563 82.7999 74.756L78.6139 43.1457C78.6131 42.9164 78.5483 42.6919 78.4268 42.4974C78.3053 42.3029 78.132 42.1462 77.9263 42.0449C77.7206 41.9437 77.4907 41.9018 77.2625 41.924C77.0343 41.9463 76.8168 42.0318 76.6346 42.1709L55.1066 54.5854C54.8809 54.716 54.6317 54.8007 54.3733 54.8346C54.1148 54.8686 53.8522 54.8512 53.6005 54.7834C53.3488 54.7156 53.113 54.5988 52.9065 54.4396C52.7001 54.2804 52.5272 54.0821 52.3976 53.8558L51.6979 52.6598C51.5679 52.4341 51.3946 52.2363 51.1879 52.0777C50.9813 51.9192 50.7454 51.8029 50.4937 51.7357C50.242 51.6685 49.9796 51.6516 49.7214 51.686C49.4632 51.7204 49.2143 51.8055 48.989 51.9363L38.9845 57.689C38.4977 58.004 38.1055 58.4451 37.8496 58.9653C37.5938 59.4855 37.4837 60.0654 37.5313 60.6432L42.5127 98.0122C42.5694 98.3128 42.686 98.5991 42.8555 98.8538C43.025 99.1086 43.244 99.3267 43.4994 99.4952L44.4681 100.051C44.5537 100.113 44.654 100.151 44.7591 100.162C44.8641 100.172 44.97 100.155 45.0661 100.111L85.3594 76.8489C85.2625 76.8938 85.1554 76.9119 85.0492 76.9014C84.943 76.8909 84.8416 76.8521 84.7554 76.7892Z" fill="black"/>
<path opacity="0.25" d="M43.499 99.4952L44.4678 100.051C44.5533 100.113 44.6537 100.151 44.7587 100.162C44.8637 100.172 44.9697 100.155 45.0658 100.111L85.359 76.8489C85.2629 76.8926 85.157 76.9101 85.0519 76.8996C84.9469 76.8891 84.8465 76.851 84.761 76.7891L83.7982 76.233C83.5457 76.0803 83.3278 75.8767 83.1584 75.635L42.8711 98.8972C43.0368 99.1378 43.2506 99.3415 43.499 99.4952Z" fill="black"/>
<path d="M43.7324 63.5972V96.4035C43.737 96.4816 43.7599 96.5575 43.7994 96.6251C43.8389 96.6926 43.8938 96.7499 43.9597 96.7922L44.2108 96.9357C44.2803 96.9709 44.3572 96.9893 44.4351 96.9893C44.513 96.9893 44.5898 96.9709 44.6593 96.9357L81.0058 75.9459C81.0716 75.9036 81.1265 75.8464 81.166 75.7788C81.2055 75.7113 81.2284 75.6353 81.233 75.5572V42.7569C81.2284 42.6788 81.2055 42.6029 81.166 42.5353C81.1265 42.4678 81.0716 42.4105 81.0058 42.3682L80.7546 42.2247C80.6851 42.1895 80.6083 42.1711 80.5304 42.1711C80.4524 42.1711 80.3756 42.1895 80.3061 42.2247L43.9597 63.2085C43.8938 63.2508 43.8389 63.3081 43.7994 63.3756C43.7599 63.4432 43.737 63.5191 43.7324 63.5972Z" fill="#FAFAFA"/>
<path d="M81.2266 42.6971C81.2285 42.6692 81.2285 42.6413 81.2266 42.6134V42.5775C81.2085 42.5344 81.1843 42.4942 81.1548 42.4579C81.1364 42.4365 81.1164 42.4165 81.095 42.3981L81.0472 42.3682L80.796 42.2247C80.7265 42.1895 80.6497 42.1711 80.5717 42.1711C80.4938 42.1711 80.417 42.1895 80.3475 42.2247L43.9592 63.2085C43.893 63.2491 43.8393 63.307 43.8037 63.376L44.5034 63.7826C44.5405 63.7148 44.5939 63.6572 44.6589 63.6151L81.0053 42.6254C81.1129 42.5656 81.2026 42.6014 81.2266 42.6971Z" fill="#E0E0E0"/>
<path d="M44.5994 96.9656C44.5037 96.9656 44.4379 96.9298 44.4379 96.8102V63.9859C44.4393 63.9076 44.4621 63.8311 44.5037 63.7647L43.8041 63.3879C43.7606 63.4535 43.7377 63.5305 43.7383 63.6092V96.4155C43.7402 96.4935 43.7614 96.5698 43.8 96.6377C43.8386 96.7055 43.8934 96.7627 43.9596 96.8042L44.2107 96.9537C44.3337 97.0084 44.4733 97.0127 44.5994 96.9656Z" fill="#E0E0E0"/>
<g opacity="0.1">
<path opacity="0.1" d="M44.5994 96.9656C44.5037 96.9656 44.4379 96.9298 44.4379 96.8102V63.9859C44.4393 63.9076 44.4621 63.8311 44.5037 63.7647L43.8041 63.3879C43.7606 63.4535 43.7377 63.5305 43.7383 63.6092V96.4155C43.7402 96.4935 43.7614 96.5698 43.8 96.6377C43.8386 96.7055 43.8934 96.7627 43.9596 96.8042L44.2107 96.9537C44.3337 97.0084 44.4733 97.0127 44.5994 96.9656Z" fill="black"/>
</g>
<path d="M86.113 45.4479C86.1331 45.2348 86.0974 45.0202 86.0093 44.8252C85.9212 44.6301 85.7838 44.4614 85.6107 44.3356L85.1143 44.0546C84.9222 43.9672 84.7103 43.9322 84.5002 43.9532C84.2902 43.9742 84.0894 44.0504 83.9183 44.1742L47.0457 65.439C46.544 65.7667 46.1269 66.2084 45.8287 66.728C45.5304 67.2477 45.3593 67.8306 45.3294 68.429V99.5669C45.3407 99.6742 45.3227 99.7825 45.2775 99.8804C45.2322 99.9783 45.1613 100.062 45.0723 100.123L45.3174 100.548L85.8559 77.1419C85.9429 77.0808 86.012 76.9976 86.0561 76.9009C86.1003 76.8042 86.1178 76.6975 86.107 76.5917L86.113 45.4479Z" fill="#FF7979"/>
<path opacity="0.25" d="M45.3174 100.536C45.4815 100.433 45.6145 100.287 45.7019 100.114C45.7894 99.9416 45.828 99.7482 45.8137 99.555V68.6982C45.845 68.1001 46.0167 67.5178 46.3149 66.9983C46.613 66.4789 47.0293 66.0369 47.53 65.7082L84.3847 44.4314C85.3355 43.8872 86.107 44.3297 86.107 45.4241V76.5679C86.1178 76.6737 86.1002 76.7804 86.0561 76.8771C86.0119 76.9738 85.9428 77.057 85.8558 77.1181L45.3174 100.536Z" fill="white"/>
<path d="M65.708 70.9586C67.8489 69.7208 69.5831 66.4078 69.5831 63.5554C69.5831 60.7029 67.8489 59.3694 65.708 60.6252C63.5672 61.881 61.833 65.176 61.833 68.0284C61.833 70.8809 63.5672 72.1965 65.708 70.9586ZM72.2262 72.6749C71.9691 70.7732 70.6356 70.0437 69.0748 70.9467L62.3413 74.8337C60.7865 75.7307 59.453 77.9971 59.1898 80.2157L58.7234 84.1385C58.6815 84.5033 58.8789 84.7365 59.142 84.5512L72.298 76.9685C72.4388 76.8675 72.5513 76.7319 72.6246 76.5748C72.6979 76.4177 72.7296 76.2444 72.7166 76.0715L72.2262 72.6749Z" fill="#FAFAFA"/>
<path d="M113.859 87.3917C113.559 87.3901 113.265 87.3118 113.004 87.1644C112.743 87.0148 112.527 86.7986 112.378 86.538C112.229 86.2773 112.152 85.9817 112.155 85.6814V47.6845C112.147 47.4818 112.088 47.2845 111.983 47.1109C111.878 46.9373 111.731 46.7932 111.555 46.6922C111.38 46.5911 111.181 46.5364 110.978 46.5332C110.776 46.53 110.575 46.5784 110.396 46.6739L93.2877 56.5648L93.0186 56.0983L110.139 46.2074C110.399 46.0575 110.694 45.9785 110.993 45.9783C111.293 45.9781 111.588 46.0568 111.848 46.2064C112.108 46.356 112.324 46.5713 112.474 46.8308C112.624 47.0902 112.704 47.3846 112.705 47.6845V85.6814C112.712 85.8837 112.77 86.0809 112.874 86.2545C112.978 86.4281 113.125 86.5724 113.3 86.674C113.475 86.7756 113.673 86.8311 113.875 86.8353C114.078 86.8395 114.278 86.7922 114.457 86.698L131.081 77.0941L131.35 77.5605L114.726 87.1644C114.461 87.3138 114.163 87.3921 113.859 87.3917Z" fill="#455A64"/>
<path d="M93.1383 55.0637C93.7363 54.7169 94.2326 54.9979 94.2326 55.6976C94.2142 56.0779 94.1054 56.4482 93.915 56.7779C93.7247 57.1077 93.4584 57.3872 93.1383 57.5933C92.5403 57.9461 92.0439 57.659 92.0439 56.9953C92.0601 56.6096 92.1678 56.2333 92.3581 55.8974C92.5483 55.5616 92.8158 55.2758 93.1383 55.0637Z" fill="#455A64"/>
<path d="M131.201 76.0656C131.799 75.7128 132.295 75.9939 132.295 76.6636C132.277 77.0439 132.168 77.4143 131.978 77.744C131.787 78.0737 131.521 78.3532 131.201 78.5593C130.603 78.9121 130.106 78.6251 130.106 77.9613C130.125 77.581 130.234 77.2107 130.424 76.881C130.614 76.5513 130.881 76.2717 131.201 76.0656Z" fill="#455A64"/>
<path d="M93.1383 123.332C93.7363 122.985 94.2326 123.266 94.2326 123.965C94.2109 124.345 94.1006 124.714 93.9106 125.043C93.7206 125.372 93.4561 125.653 93.1383 125.861C92.5403 126.208 92.0439 125.927 92.0439 125.227C92.0623 124.847 92.1712 124.477 92.3616 124.147C92.5519 123.817 92.8182 123.538 93.1383 123.332Z" fill="#455A64"/>
<path d="M131.201 88.7014C131.799 88.3546 132.295 88.6356 132.295 89.3353C132.277 89.7156 132.168 90.0859 131.978 90.4156C131.787 90.7454 131.521 91.0249 131.201 91.231C130.603 91.5838 130.106 91.2967 130.106 90.6031C130.127 90.2225 130.237 89.8522 130.427 89.5219C130.617 89.1916 130.882 88.9106 131.201 88.7014Z" fill="#455A64"/>
<path d="M93.2877 124.826L93.0186 124.36L110.57 114.194C111.056 113.913 111.46 113.51 111.741 113.024C112.023 112.538 112.171 111.987 112.172 111.425V102.82C112.172 102.164 112.344 101.52 112.672 100.952C112.999 100.384 113.47 99.9127 114.038 99.5849L131.087 89.7358L131.356 90.2023L114.307 100.051C113.822 100.332 113.419 100.736 113.138 101.222C112.858 101.708 112.711 102.259 112.711 102.82V111.455C112.71 112.111 112.537 112.756 112.208 113.324C111.88 113.891 111.407 114.363 110.839 114.69L93.2877 124.826Z" fill="#455A64"/>
<path d="M93.1383 194.123C93.7363 193.776 94.2326 194.057 94.2326 194.756C94.2142 195.137 94.1054 195.507 93.915 195.837C93.7247 196.166 93.4584 196.446 93.1383 196.652C92.5403 196.999 92.0439 196.718 92.0439 196.018C92.0623 195.638 92.1712 195.268 92.3616 194.938C92.5519 194.608 92.8182 194.329 93.1383 194.123Z" fill="#455A64"/>
<path d="M131.201 114.081C131.799 113.728 132.295 114.015 132.295 114.679C132.279 115.064 132.171 115.441 131.981 115.776C131.791 116.112 131.523 116.398 131.201 116.61C130.603 116.957 130.106 116.676 130.106 115.976C130.125 115.596 130.234 115.226 130.424 114.896C130.614 114.566 130.881 114.287 131.201 114.081Z" fill="#455A64"/>
<path d="M93.2877 195.623L93.0186 195.157L110.564 184.991C111.05 184.709 111.454 184.304 111.735 183.817C112.016 183.331 112.165 182.779 112.167 182.216V128.103C112.167 127.447 112.339 126.802 112.666 126.233C112.994 125.665 113.465 125.192 114.032 124.862L131.081 115.019L131.35 115.485L114.301 125.335C113.816 125.616 113.413 126.019 113.133 126.505C112.852 126.991 112.705 127.542 112.705 128.103V182.246C112.703 182.903 112.53 183.548 112.201 184.117C111.873 184.685 111.401 185.158 110.833 185.487L93.2877 195.623Z" fill="#455A64"/>
<path d="M181.511 98.2932L142.043 121.077V134.705L143.562 135.579L183.03 112.795V99.1663L181.511 98.2932Z" fill="#37474F"/>
<path d="M143.562 121.956L183.03 99.1663V112.795L143.562 135.578V121.956Z" fill="#455A64"/>
<path d="M142.043 121.077L143.562 121.956V135.579L142.043 134.706V121.077Z" fill="#263238"/>
<path d="M164.352 121.344L166.372 112.385L168.34 111.265L165.353 122.834L164.057 123.572L164.352 121.344ZM162.49 114.594L164.505 121.256L164.811 123.143L163.503 123.887L160.534 115.708L162.49 114.594ZM164.664 130.231L161.825 140.843L160.664 141.503L163.933 129.773L164.682 129.347L164.664 130.231ZM167.044 137.872L164.199 130.496L164.181 129.632L164.929 129.206L168.21 137.208L167.044 137.872ZM166.897 134.302V135.373L162.078 138.116V137.045L166.897 134.302ZM172.964 124.632V134.502L171.203 135.504V125.635L172.964 124.632ZM175.603 123.13V124.723L168.605 128.707V127.114L175.603 123.13ZM167.014 152.302V153.888L162.449 156.487V154.901L167.014 152.302ZM163.026 146.289V156.159L161.259 157.165V147.295L163.026 146.289ZM166.419 148.377V149.923L162.449 152.183V150.637L166.419 148.377ZM167.009 144.022V145.615L162.449 148.211V146.618L167.009 144.022Z" fill="#FAFAFA"/>
<path d="M180.285 35.3897C173.916 41.1126 168.415 40.8136 164.97 38.1644C161.538 44.7843 156.036 51.4281 149.667 53.0726L146.025 62.8917C146.025 62.8917 147.975 65.1402 147.975 70.5162C147.956 72.7676 147.655 75.0076 147.078 77.1839C146.414 79.8331 145.559 82.5659 145.559 87.1586C145.559 90.2622 145.966 93.2821 147.538 96.0329C148.498 97.6853 149.87 99.0599 151.521 100.022L145.99 96.8282C144.249 95.8616 142.803 94.442 141.804 92.72C140.237 89.9692 139.824 86.9493 139.824 83.8456C139.824 79.265 140.679 76.5201 141.343 73.865C141.925 71.6917 142.229 69.4532 142.246 67.2033C142.246 61.8213 140.297 59.5788 140.297 59.5788L143.932 49.7596C150.301 48.1211 155.803 41.4714 159.241 34.8515C162.68 37.5006 168.211 37.7996 174.55 32.0828L180.285 35.3897Z" fill="#FF7979"/>
<path opacity="0.8" d="M161.251 36.0177L159.235 34.8516C159.853 35.3272 160.53 35.7193 161.251 36.0177Z" fill="white"/>
<path opacity="0.85" d="M174.545 32.0828C169.306 36.789 164.654 37.4169 161.251 36.0176L164.971 38.1644C168.415 40.8136 173.941 41.1126 180.285 35.3897L174.545 32.0828Z" fill="white"/>
<path opacity="0.65" d="M159.236 34.8516C155.797 41.4714 150.295 48.1212 143.927 49.7597L149.668 53.0726C156.036 51.4341 161.538 44.7843 164.97 38.1645L159.236 34.8516Z" fill="white"/>
<path opacity="0.55" d="M143.927 49.7595L140.291 59.5787L146.026 62.8916L149.668 53.0724L143.927 49.7595Z" fill="white"/>
<path opacity="0.4" d="M147.539 96.0329C145.966 93.2821 145.559 90.2622 145.559 87.1586C145.559 82.5779 146.414 79.8331 147.078 77.184C147.655 75.0077 147.956 72.7676 147.975 70.5163C147.975 65.1343 146.026 62.8918 146.026 62.8918L140.291 59.5789C140.291 59.5789 142.24 61.8273 142.24 67.2034C142.223 69.4532 141.919 71.6917 141.337 73.8651C140.674 76.5202 139.818 79.2471 139.818 83.8457C139.818 86.9493 140.231 89.9692 141.798 92.72C142.797 94.442 144.243 95.8616 145.984 96.8283L151.515 100.022C149.866 99.0591 148.496 97.6847 147.539 96.0329Z" fill="white"/>
<path d="M164.977 102.76C155.456 102.862 150.027 100.368 147.539 96.0328C145.966 93.282 145.56 90.2621 145.56 87.1585C145.56 82.5778 146.409 79.833 147.078 77.1779C147.658 75.0039 147.961 72.7658 147.981 70.5162C147.981 65.1342 146.032 62.8976 146.032 62.8976L149.662 53.0725C156.037 51.434 161.538 44.7842 164.977 38.1644C168.409 40.8135 173.911 41.1125 180.285 35.3896L183.921 41.0228C182.674 44.1651 182.013 47.5093 181.972 50.8898C181.935 52.8024 182.241 54.7062 182.875 56.511C183.964 59.1135 184.48 61.9199 184.388 64.7395C184.373 68.5466 183.697 72.3222 182.39 75.8982C179.939 83.0742 174.491 91.8767 164.977 102.76Z" fill="#FF7979"/>
<path opacity="0.75" d="M164.977 102.76C155.456 102.862 150.027 100.368 147.539 96.0328C145.966 93.282 145.56 90.2621 145.56 87.1585C145.56 82.5778 146.409 79.833 147.078 77.1779C147.658 75.0039 147.961 72.7658 147.981 70.5162C147.981 65.1342 146.032 62.8976 146.032 62.8976L149.662 53.0725C156.037 51.434 161.538 44.7842 164.977 38.1644C168.409 40.8135 173.911 41.1125 180.285 35.3896L183.921 41.0228C182.674 44.1651 182.013 47.5093 181.972 50.8898C181.935 52.8024 182.241 54.7062 182.875 56.511C183.964 59.1135 184.48 61.9199 184.388 64.7395C184.373 68.5466 183.697 72.3222 182.39 75.8982C179.939 83.0742 174.491 91.8767 164.977 102.76Z" fill="white"/>
<path opacity="0.75" d="M163.852 100.285C156.485 100.201 151.719 98.3591 149.692 94.807C148.549 92.8036 148.035 90.4416 148.035 87.1585C148.032 84.2898 148.435 81.435 149.231 78.6789L149.464 77.7819C150.096 75.4111 150.424 72.9696 150.439 70.5162C150.439 66.5993 149.5 64.0339 148.759 62.6166L151.545 55.0758C158.363 52.6838 163.29 45.9743 165.897 41.561C167.304 42.1583 168.818 42.4634 170.347 42.458C173.426 42.458 176.56 41.3099 179.681 39.0435L181.146 41.3159C180.08 44.395 179.517 47.6256 179.478 50.8839C179.443 53.0777 179.797 55.2603 180.525 57.3303C180.596 57.5456 180.68 57.7609 180.758 57.9821C181.607 60.1279 181.996 62.4279 181.9 64.7335C181.887 68.2649 181.262 71.7673 180.052 75.0849C177.642 82.1593 172.182 90.6329 163.852 100.285Z" fill="#FF7979"/>
<path opacity="0.4" d="M163.852 100.285C156.485 100.201 151.719 98.3591 149.692 94.807C148.549 92.8036 148.035 90.4416 148.035 87.1585C148.032 84.2898 148.435 81.435 149.231 78.6789L149.464 77.7819C150.096 75.4111 150.424 72.9696 150.439 70.5162C150.439 66.5993 149.5 64.0339 148.759 62.6166L151.545 55.0758C158.363 52.6838 163.29 45.9743 165.897 41.561C167.304 42.1583 168.818 42.4634 170.347 42.458C173.426 42.458 176.56 41.3099 179.681 39.0435L181.146 41.3159C180.08 44.395 179.517 47.6256 179.478 50.8839C179.443 53.0777 179.797 55.2603 180.525 57.3303C180.596 57.5456 180.68 57.7609 180.758 57.9821C181.607 60.1279 181.996 62.4279 181.9 64.7335C181.887 68.2649 181.262 71.7673 180.052 75.0849C177.642 82.1593 172.182 90.6329 163.852 100.285Z" fill="white"/>
<path opacity="0.15" d="M163.852 100.285C156.485 100.201 151.719 98.3591 149.692 94.807C148.549 92.8036 148.035 90.4416 148.035 87.1585C148.032 84.2898 148.435 81.435 149.231 78.6789L149.464 77.7819C150.096 75.4111 150.424 72.9696 150.439 70.5162C150.439 66.5993 149.5 64.0339 148.759 62.6166L151.545 55.0758C158.363 52.6838 163.29 45.9743 165.897 41.561C167.304 42.1583 168.818 42.4634 170.347 42.458C173.426 42.458 176.56 41.3099 179.681 39.0435L181.146 41.3159C180.08 44.395 179.517 47.6256 179.478 50.8839C179.443 53.0777 179.797 55.2603 180.525 57.3303C180.596 57.5456 180.68 57.7609 180.758 57.9821C181.607 60.1279 181.996 62.4279 181.9 64.7335C181.887 68.2649 181.262 71.7673 180.052 75.0849C177.642 82.1593 172.182 90.6329 163.852 100.285Z" fill="#FF7979"/>
<path opacity="0.8" d="M151.372 96.876C153.884 99.0886 158.058 100.249 163.846 100.314L160.151 98.2095C157.171 98.2542 154.204 97.8035 151.372 96.876Z" fill="white"/>
<path opacity="0.25" d="M179.245 40.2036L181.164 41.3158L179.699 39.0435L178.868 39.6235L179.245 40.2036Z" fill="#FF7979"/>
<path d="M178.616 56.2122C177.889 54.1441 177.535 51.9635 177.57 49.7717C177.609 46.5136 178.173 43.283 179.238 40.2037L178.867 39.6057C176.015 41.4894 173.168 42.4402 170.364 42.4402C168.835 42.4456 167.322 42.1405 165.915 41.5432C163.301 45.9565 158.374 52.6899 151.563 55.058L148.776 62.5988C149.517 64.0161 150.456 66.5815 150.456 70.4984C150.448 72.9571 150.127 75.4047 149.5 77.782L149.266 78.679C148.47 81.4351 148.068 84.2899 148.07 87.1587C148.07 90.4417 148.585 92.8038 149.727 94.8071C150.328 95.8374 151.144 96.7266 152.119 97.4144C154.583 98.5386 157.862 99.1266 161.956 99.1785C170.292 89.5208 175.752 81.0471 178.186 73.9847C179.381 70.6623 179.994 67.1584 179.998 63.6274C180.093 61.3218 179.704 59.0217 178.855 56.876L178.616 56.2122Z" fill="#FF7979"/>
<path d="M168.396 80.2098L159.474 85.3645L160.856 69.2185C159.785 68.6205 159.109 67.2631 159.109 65.2658C159.109 61.7136 161.268 57.5815 163.935 56.0446C166.602 54.5077 168.767 56.1343 168.767 59.6924C168.715 61.8044 168.111 63.866 167.015 65.6724L168.396 80.2098Z" fill="#FF7979"/>
<path opacity="0.25" d="M168.396 80.2098L159.474 85.3645L160.856 69.2185C159.785 68.6205 159.109 67.2631 159.109 65.2658C159.109 61.7136 161.268 57.5815 163.935 56.0446C166.602 54.5077 168.767 56.1343 168.767 59.6924C168.715 61.8044 168.111 63.866 167.015 65.6724L168.396 80.2098Z" fill="black"/>
<path opacity="0.15" d="M168.397 80.2098L160.312 75.5454L159.475 85.3646L168.397 80.2098Z" fill="black"/>
<path opacity="0.15" d="M163.936 56.0446C162.189 57.0493 160.664 59.1662 159.821 61.5044L166.997 65.6904C168.093 63.884 168.697 61.8224 168.749 59.7104C168.767 56.1343 166.603 54.5018 163.936 56.0446Z" fill="black"/>
<path d="M149.691 225.793C140.757 220.638 126.285 220.638 117.351 225.793C113.613 227.952 111.269 229.381 110.665 232.215V235.134C110.742 237.512 111.736 239.769 113.44 241.431L73.374 261.661V264.567L77.865 267.156H90.423L95.3505 264.316V261.565L99.2794 259.371L104.739 258.892L106.916 257.636L107.137 252.757L111.174 250.424L117.088 251.764L124.79 247.315C133.078 249.3 142.981 248.355 149.721 244.462C154.2 241.879 156.43 238.482 156.418 235.098V232.215C155.982 229.183 153.685 228.113 149.691 225.793ZM144.111 234.165C142.691 234.882 141.122 235.255 139.531 235.255C137.94 235.255 136.371 234.882 134.95 234.165C132.421 232.7 132.421 230.332 134.95 228.873C136.371 228.156 137.94 227.782 139.531 227.782C141.122 227.782 142.691 228.156 144.111 228.873C146.641 230.308 146.641 232.676 144.117 234.141L144.111 234.165Z" fill="#FF7979"/>
<path opacity="0.2" d="M149.691 225.793C140.757 220.638 126.285 220.638 117.351 225.793C113.613 227.952 111.269 229.381 110.665 232.215V235.134C110.742 237.512 111.736 239.769 113.44 241.431L73.374 261.661V264.567L77.865 267.156H90.423L95.3505 264.316V261.565L99.2794 259.371L104.739 258.892L106.916 257.636L107.137 252.757L111.174 250.424L117.088 251.764L124.79 247.315C133.078 249.3 142.981 248.355 149.721 244.462C154.2 241.879 156.43 238.482 156.418 235.098V232.215C155.982 229.183 153.685 228.113 149.691 225.793ZM144.111 234.165C142.691 234.882 141.122 235.255 139.531 235.255C137.94 235.255 136.371 234.882 134.95 234.165C132.421 232.7 132.421 230.332 134.95 228.873C136.371 228.156 137.94 227.782 139.531 227.782C141.122 227.782 142.691 228.156 144.111 228.873C146.641 230.308 146.641 232.676 144.117 234.141L144.111 234.165Z" fill="black"/>
<path d="M149.691 222.881C140.757 217.726 126.285 217.726 117.351 222.881C110.013 227.121 108.722 233.513 113.44 238.518L73.374 261.661L77.865 264.25H90.423L95.3505 261.404L95.0156 258.838L99.2794 256.446L104.739 255.968L106.916 254.712L107.137 249.827L111.174 247.5L117.088 248.834L124.79 244.391C133.078 246.376 142.981 245.425 149.721 241.532C158.619 236.396 158.619 228.035 149.691 222.881ZM144.111 231.253C142.691 231.97 141.122 232.343 139.531 232.343C137.94 232.343 136.371 231.97 134.95 231.253C132.421 229.794 132.421 227.426 134.95 225.966C136.369 225.244 137.939 224.867 139.531 224.867C141.123 224.867 142.693 225.244 144.111 225.966C146.641 227.402 146.641 229.77 144.117 231.229L144.111 231.253Z" fill="#FF7979"/>
<path opacity="0.3" d="M149.691 222.881C140.757 217.726 126.285 217.726 117.351 222.881C110.013 227.121 108.722 233.513 113.44 238.518L73.374 261.661L77.865 264.25H90.423L95.3505 261.404L95.0156 258.838L99.2794 256.446L104.739 255.968L106.916 254.712L107.137 249.827L111.174 247.5L117.088 248.834L124.79 244.391C133.078 246.376 142.981 245.425 149.721 241.532C158.619 236.396 158.619 228.035 149.691 222.881ZM144.111 231.253C142.691 231.97 141.122 232.343 139.531 232.343C137.94 232.343 136.371 231.97 134.95 231.253C132.421 229.794 132.421 227.426 134.95 225.966C136.369 225.244 137.939 224.867 139.531 224.867C141.123 224.867 142.693 225.244 144.111 225.966C146.641 227.402 146.641 229.77 144.117 231.229L144.111 231.253Z" fill="white"/>
<path d="M133.52 242.788C127.869 242.788 122.595 241.539 118.666 239.278C115.246 237.299 113.284 234.727 113.284 232.216C113.284 229.704 115.246 227.133 118.666 225.159C122.595 222.893 127.869 221.643 133.52 221.643C139.172 221.643 144.446 222.893 148.375 225.159C151.795 227.133 153.757 229.71 153.757 232.216C153.757 234.721 151.795 237.299 148.375 239.278C144.446 241.539 139.172 242.788 133.52 242.788ZM133.52 222.456C128.013 222.456 122.882 223.652 119.079 225.859C115.921 227.683 114.109 229.997 114.109 232.204C114.109 234.41 115.903 236.725 119.079 238.555C122.882 240.749 128.007 241.957 133.52 241.957C139.034 241.957 144.159 240.761 147.962 238.555C151.12 236.725 152.932 234.416 152.932 232.204C152.932 229.991 151.138 227.683 147.962 225.859C144.159 223.652 139.028 222.456 133.52 222.456Z" fill="#FF7979"/>
<path opacity="0.1" d="M141.726 244.528V247.441C136.121 248.655 130.317 248.612 124.73 247.315V244.409C130.317 245.707 136.122 245.748 141.726 244.528Z" fill="black"/>
<path opacity="0.1" d="M117.052 248.852V251.764L111.138 250.425V247.519L117.052 248.852Z" fill="black"/>
<path opacity="0.1" d="M107.101 249.851V252.757L106.88 257.637V254.73L107.101 249.851Z" fill="black"/>
<path opacity="0.1" d="M104.703 255.986V258.892L99.2432 259.376V256.464L104.703 255.986Z" fill="black"/>
<path opacity="0.1" d="M90.3875 264.25H77.8594V267.163H90.3875V264.25Z" fill="black"/>
<path opacity="0.15" d="M73.3682 261.661V264.567L77.8591 267.157V264.25L75.8917 263.114V264.37L74.8034 263.742V262.474L73.3682 261.661Z" fill="black"/>
<path d="M74.8037 262.474L75.8921 263.114V264.37L74.8037 263.742V262.474Z" fill="#FF7979"/>
<path opacity="0.3" d="M74.8037 262.474L75.8921 263.114V264.37L74.8037 263.742V262.474Z" fill="white"/>
<path d="M74.8037 262.474V263.742L115.898 240.013L114.816 239.374L74.8037 262.474Z" fill="#FF7979"/>
<path opacity="0.15" d="M114.815 239.374V240.641L115.898 240.013L114.815 239.374Z" fill="black"/>
<path d="M206.848 232.15L201.209 221.039L189.847 227.683L203.84 244.2C203.84 244.2 210.771 243.56 211.889 239.942C213.007 236.324 208.755 233.352 206.848 232.15Z" fill="#C8856A"/>
<path d="M214.843 236.515C215.477 236.975 216.012 237.559 216.415 238.231C216.876 238.913 216.732 242.202 217.169 243.727C217.605 245.252 217.94 245.659 218.67 247.572C219.477 249.689 220.972 251.627 219.268 257.074C217.564 262.522 214.873 265.123 212.588 266.451C211.738 266.891 210.795 267.121 209.837 267.121C209.837 267.121 206.847 265.991 207.302 264.22C207.756 262.45 214.843 236.515 214.843 236.515Z" fill="#263238"/>
<path d="M201.717 242.495C201.801 243.057 202.584 243.919 202.913 244.379C203.989 245.916 204.48 248.003 204.851 249.821C206.615 258.444 203.188 262.827 207.841 266.063C209.186 266.912 211.979 266.66 216.213 261.243C218.383 258.468 219.615 252.757 218.772 250.174C217.929 247.59 216.769 245.904 216.225 243.919C215.68 241.933 215.967 238.22 214.867 236.515C214.156 235.551 213.236 234.76 212.176 234.201C211.351 233.699 209.551 233.041 208.714 232.563C207.876 232.084 207.41 231.54 206.872 232.15L207.841 233.346C209.354 235.445 208.929 235.738 208.893 236.862C208.959 238.062 209.148 239.252 209.455 240.414C208.379 239.057 207.942 237.873 206.764 238.082C205.586 238.291 205.449 238.232 203.774 239.81C202.1 241.389 201.645 241.999 201.717 242.495Z" fill="#455A64"/>
<path d="M216.188 261.243C218.359 258.468 219.591 252.757 218.748 250.174C218.463 249.321 218.132 248.484 217.755 247.668C217.791 247.841 217.839 248.021 217.863 248.17C217.916 248.505 217.964 248.84 217.994 249.175C218.192 250.496 218.043 251.845 217.564 253.092C217.079 254.162 215.949 256.859 214.502 256.919C213.677 256.955 212.983 256.148 212.666 255.233C212.534 254.844 212.313 253.797 212.313 253.797C210.982 254.105 209.71 254.626 208.546 255.34C206.441 256.728 206.513 257.039 206.513 257.039C206.64 257.646 206.664 258.271 206.584 258.886C206.462 259.549 206.194 260.176 205.801 260.722C205.64 260.888 205.459 261.033 205.263 261.153C205.352 263.144 205.861 264.705 207.816 266.062C209.162 266.912 211.954 266.708 216.188 261.243Z" fill="#37474F"/>
<path d="M204.838 249.82C205.294 252.089 205.474 254.404 205.376 256.715C206.172 258.922 206.865 258.856 206.961 257.714C207.057 256.572 205.532 251.824 204.396 247.901C204.569 248.547 204.712 249.205 204.838 249.82Z" fill="#37474F"/>
<path d="M210.089 236.001C210.184 234.882 209.885 233.766 209.246 232.843C209.036 232.748 208.845 232.652 208.69 232.562C207.781 232.048 207.386 231.54 206.848 232.15L207.816 233.346C209.329 235.445 208.905 235.738 208.869 236.862C208.935 238.062 209.124 239.252 209.431 240.414C210.31 244.157 211.111 245.407 211.53 248.947C211.949 252.488 211.237 254.856 211.733 255.059C212.23 255.262 213.24 254.856 213.426 252.021C213.611 249.187 212.355 244.427 211.476 242.172C210.597 239.918 209.897 237.508 210.089 236.001Z" fill="#37474F"/>
<path d="M212.565 254.042C212.515 254.092 212.453 254.127 212.385 254.144C209.904 254.652 208.582 255.28 206.734 257.457C206.672 257.526 206.586 257.568 206.493 257.575C206.401 257.582 206.309 257.552 206.238 257.493C206.167 257.433 206.122 257.346 206.115 257.253C206.107 257.16 206.136 257.068 206.196 256.997C208.146 254.7 209.605 254.007 212.242 253.45C212.334 253.433 212.429 253.451 212.507 253.503C212.585 253.554 212.64 253.634 212.661 253.725C212.672 253.782 212.669 253.841 212.652 253.896C212.635 253.951 212.606 254.001 212.565 254.042Z" fill="#EBEBEB"/>
<path d="M212.117 251.094C212.069 251.144 212.009 251.179 211.943 251.196C209.372 251.794 207.949 252.518 205.963 254.784C205.934 254.822 205.897 254.853 205.855 254.876C205.812 254.899 205.766 254.912 205.718 254.916C205.67 254.92 205.622 254.914 205.577 254.899C205.532 254.883 205.49 254.858 205.455 254.826C205.418 254.795 205.388 254.757 205.366 254.714C205.345 254.672 205.331 254.625 205.327 254.577C205.323 254.53 205.329 254.481 205.344 254.436C205.358 254.39 205.382 254.348 205.413 254.311C207.482 251.919 209.001 251.094 211.758 250.466C211.833 250.45 211.911 250.459 211.981 250.49C212.05 250.522 212.108 250.575 212.146 250.642C212.183 250.709 212.198 250.786 212.188 250.862C212.179 250.938 212.145 251.009 212.093 251.064L212.117 251.094Z" fill="#EBEBEB"/>
<path d="M212.182 247.847C212.128 247.901 212.059 247.938 211.984 247.955C209.156 248.613 207.493 249.492 205.329 252.021C205.259 252.101 205.161 252.15 205.056 252.158C204.951 252.165 204.847 252.131 204.767 252.063C204.687 251.994 204.638 251.896 204.63 251.791C204.622 251.685 204.656 251.581 204.725 251.501C207.003 248.846 208.803 247.877 211.805 247.177C211.908 247.154 212.016 247.172 212.106 247.228C212.195 247.284 212.259 247.374 212.283 247.476C212.298 247.542 212.296 247.61 212.278 247.674C212.261 247.739 212.227 247.798 212.182 247.847Z" fill="#EBEBEB"/>
<path d="M211.692 245.073C211.641 245.128 211.574 245.165 211.501 245.18C208.726 245.82 207.117 246.663 204.994 249.145C204.963 249.191 204.923 249.229 204.876 249.259C204.829 249.288 204.776 249.307 204.721 249.314C204.666 249.321 204.61 249.317 204.557 249.302C204.504 249.286 204.455 249.26 204.413 249.224C204.37 249.188 204.336 249.143 204.312 249.093C204.288 249.044 204.275 248.989 204.274 248.934C204.272 248.878 204.282 248.823 204.303 248.772C204.325 248.721 204.356 248.675 204.396 248.637C206.627 246.035 208.385 245.096 211.327 244.451C211.377 244.438 211.429 244.436 211.48 244.444C211.531 244.452 211.579 244.471 211.623 244.498C211.666 244.525 211.704 244.561 211.733 244.603C211.763 244.646 211.783 244.693 211.794 244.744C211.803 244.803 211.799 244.863 211.781 244.92C211.764 244.977 211.733 245.029 211.692 245.073Z" fill="#EBEBEB"/>
<path d="M210.693 242.37C210.641 242.423 210.575 242.461 210.502 242.477C207.727 243.123 206.118 243.966 203.995 246.448C203.925 246.515 203.832 246.553 203.735 246.556C203.637 246.559 203.542 246.525 203.468 246.462C203.394 246.399 203.346 246.311 203.333 246.214C203.32 246.118 203.343 246.02 203.397 245.94C205.634 243.332 207.38 242.399 210.322 241.718C210.405 241.697 210.492 241.703 210.571 241.736C210.649 241.77 210.714 241.828 210.756 241.902C210.799 241.976 210.815 242.062 210.804 242.147C210.792 242.231 210.753 242.309 210.693 242.37Z" fill="#EBEBEB"/>
<path d="M203.786 233.041L196.436 239.051L192.28 241.658L197.022 250.628L210.394 244.23L203.786 233.041Z" fill="#C8856A"/>
<path d="M218.76 192.921C218.76 192.921 192.011 188.484 180.565 188.562C168.886 188.633 167.804 197.4 170.728 202.77C176.326 213.056 195.778 234.865 195.778 234.865C195.778 234.865 202.315 231.875 204.324 226.218L199.881 216.052L213.85 220.525L220.978 215.741L221.576 212.099L218.76 192.921Z" fill="#FF7979"/>
<path opacity="0.4" d="M218.76 192.921C218.76 192.921 192.011 188.484 180.565 188.562C168.886 188.633 167.804 197.4 170.728 202.77C176.326 213.056 195.778 234.865 195.778 234.865C195.778 234.865 202.315 231.875 204.324 226.218L199.881 216.052L213.85 220.525L220.978 215.741L221.576 212.099L218.76 192.921Z" fill="black"/>
<path d="M218.76 192.921L265.058 200.629C265.058 200.629 265.518 211.71 261.159 221.637C259.616 225.124 257.218 228.165 254.186 230.477C251.154 232.79 247.587 234.299 243.817 234.865C239.172 235.498 234.497 235.878 229.811 236.001C227.557 237.731 225.098 239.179 222.492 240.312C218.826 241.772 202.722 248.529 202.722 248.529C202.722 248.529 198.189 244.696 198.638 236.706L213.869 220.513C217.313 216.327 218.521 214.951 220.447 214.006C217.481 208.325 218.431 199.176 218.76 192.921Z" fill="#FF7979"/>
<path opacity="0.3" d="M218.76 192.921L265.058 200.629C265.058 200.629 265.518 211.71 261.159 221.637C259.616 225.124 257.218 228.165 254.186 230.477C251.154 232.79 247.587 234.299 243.817 234.865C239.172 235.498 234.497 235.878 229.811 236.001C227.557 237.731 225.098 239.179 222.492 240.312C218.826 241.772 202.722 248.529 202.722 248.529C202.722 248.529 198.189 244.696 198.638 236.706L213.869 220.513C217.313 216.327 218.521 214.951 220.447 214.006C217.481 208.325 218.431 199.176 218.76 192.921Z" fill="black"/>
<g opacity="0.3">
<path opacity="0.3" d="M197.555 207.375C199.704 210.527 201.673 213.8 203.451 217.176L199.863 216.04C195.845 206.472 195.019 203.667 188.591 199.182C188.609 199.182 193.219 200.928 197.555 207.375Z" fill="black"/>
<path opacity="0.3" d="M233.22 230.631C233.22 230.631 233.274 232.981 229.805 236.013C227.55 237.743 225.092 239.191 222.486 240.324C218.826 241.772 202.722 248.529 202.722 248.529C202.722 248.529 201.843 248.122 200.587 245.754C204.773 244.768 218.491 239.392 222.928 237.514C230.828 234.165 233.22 230.631 233.22 230.631Z" fill="black"/>
<path opacity="0.3" d="M216.153 217.798C214.592 219.628 213.851 220.513 213.851 220.513L211.614 219.777C211.614 219.777 215.579 215.466 218.132 213.199C218.577 212.763 219.068 212.378 219.598 212.051C218.306 208.66 218.354 203.081 218.354 203.081C218.784 206.029 219.946 208.823 221.732 211.208C223.844 210.713 226.039 210.688 228.161 211.136C232.64 211.884 245.623 214.096 245.623 214.096C245.623 214.096 233.178 212.972 226.702 212.721C220.225 212.47 217.714 215.968 216.153 217.798Z" fill="black"/>
</g>
<path d="M175.429 246.328C172.283 247.572 170.346 248.816 168.893 250.717C167.44 252.619 166.991 254.539 168.372 256.841C169.754 259.143 172.289 261.84 175.303 261.667C178.317 261.493 180.171 260.74 182.964 259.227L175.429 246.328Z" fill="#263238"/>
<path d="M200.569 248.99C200.616 249.934 196.64 251.812 192.513 253.774C188.088 255.885 187 257.26 183.388 259.036C179.262 261.069 177.695 261.189 174.49 260.298C171.285 259.407 167.314 254.82 170.088 250.604C172.331 247.172 175.237 246.227 179.656 245.067C183.164 244.18 186.61 243.065 189.972 241.73C193.159 240.492 195.785 238.273 196.442 239.045C195.988 239.26 192.657 241.317 193.285 241.879C193.44 242.166 193.913 242.077 194.732 241.736C194.908 241.648 195.101 241.597 195.297 241.588C195.494 241.579 195.691 241.611 195.874 241.682C196.244 241.921 196.532 242.268 196.699 242.675C197.082 243.496 197.415 244.338 197.698 245.198C197.943 245.796 197.842 245.443 198.075 246.035C198.308 246.628 198.822 247.686 198.757 248.29C198.721 248.655 198.452 248.768 198.159 248.948C197.866 249.127 197.489 249.342 197.22 249.546C197.118 249.623 196.927 249.899 196.987 250.036C197.046 250.174 197.662 250.156 197.901 250.036C198.141 249.917 198.541 249.839 198.834 249.731C199.127 249.623 199.839 249.33 200.569 248.99Z" fill="#455A64"/>
<path d="M184.782 258.336C184.184 258.635 180.44 260.375 179.268 259.335C177.994 258.205 180.996 256.399 180.996 256.399C180.996 256.399 181.457 253.576 178.048 249.414C177.45 249.875 174.992 249.851 175.022 248.404C175.052 246.956 179.208 245.174 179.244 245.15C175.022 246.281 172.242 247.249 170.065 250.586C167.314 254.802 171.261 259.389 174.466 260.28C177.671 261.171 179.25 261.051 183.364 259.018C183.801 258.845 184.441 258.575 184.782 258.336Z" fill="#37474F"/>
<path d="M180.596 256.141C179.035 256.662 180.106 258.085 182.39 257.625C185.817 256.931 188.669 254.987 192.484 253.779C196.61 251.812 200.814 249.976 200.545 248.936C199.81 249.211 198.225 249.868 198.225 249.868C197.92 250 197.119 250.299 197.119 250.299C193.991 251.65 190.541 253.821 187.144 254.742C184.184 255.549 182.181 255.621 180.596 256.141Z" fill="#37474F"/>
<path d="M178.3 249.964C179.729 249.139 179.974 248.427 182.779 247.141C185.583 245.856 190.325 243.099 193.256 241.389C194.356 240.661 195.418 239.876 196.437 239.039C195.953 238.482 194.165 238.991 192.377 240.121C190.589 241.251 189.5 241.963 187.73 242.89C184.286 244.959 180.363 246.352 178.395 247.62C176.428 248.888 176.864 250.801 178.3 249.964Z" fill="#37474F"/>
<path d="M178.084 249.593C178.104 249.642 178.132 249.686 178.168 249.725C179.741 251.706 180.673 254.12 180.841 256.644C180.848 256.746 180.892 256.841 180.965 256.913C181.037 256.984 181.134 257.027 181.235 257.033C181.283 257.029 181.33 257.016 181.372 256.993C181.415 256.971 181.452 256.939 181.482 256.902C181.512 256.864 181.533 256.821 181.546 256.774C181.558 256.728 181.56 256.679 181.552 256.632C181.116 251.896 178.772 249.324 178.64 249.181C178.609 249.145 178.57 249.117 178.527 249.097C178.483 249.077 178.437 249.067 178.389 249.067C178.341 249.067 178.295 249.077 178.251 249.097C178.208 249.117 178.169 249.145 178.138 249.181C178.092 249.238 178.063 249.307 178.053 249.38C178.044 249.452 178.054 249.526 178.084 249.593Z" fill="#F0F0F0"/>
<path d="M180.858 247.572C180.876 247.613 180.901 247.651 180.93 247.686C182.731 250.073 183.874 252.892 184.243 255.86C184.253 255.96 184.299 256.053 184.373 256.121C184.447 256.19 184.543 256.229 184.644 256.231C184.692 256.227 184.739 256.213 184.782 256.189C184.824 256.165 184.861 256.133 184.89 256.094C184.919 256.055 184.939 256.01 184.949 255.963C184.959 255.915 184.959 255.866 184.949 255.818C184.572 252.669 183.353 249.68 181.42 247.165C181.392 247.127 181.355 247.096 181.313 247.073C181.271 247.05 181.225 247.037 181.177 247.034C181.13 247.03 181.082 247.037 181.037 247.053C180.993 247.07 180.952 247.096 180.918 247.129C180.866 247.189 180.833 247.263 180.822 247.342C180.811 247.42 180.824 247.5 180.858 247.572Z" fill="#F0F0F0"/>
<path d="M186.97 255.567C186.998 255.635 187.042 255.694 187.1 255.738C187.158 255.782 187.227 255.81 187.299 255.818C187.347 255.819 187.395 255.809 187.439 255.789C187.483 255.77 187.523 255.742 187.556 255.707C187.588 255.671 187.613 255.629 187.629 255.584C187.644 255.538 187.65 255.49 187.646 255.442C187.478 250.43 184.249 245.73 184.1 245.569C184.069 245.532 184.03 245.503 183.987 245.483C183.944 245.463 183.896 245.452 183.849 245.452C183.801 245.452 183.754 245.463 183.71 245.483C183.667 245.503 183.628 245.532 183.597 245.569C183.536 245.65 183.505 245.75 183.51 245.852C183.516 245.954 183.557 246.051 183.627 246.125C183.663 246.161 186.785 250.753 186.928 255.418C186.935 255.469 186.949 255.52 186.97 255.567Z" fill="#F0F0F0"/>
<path d="M189.566 253.929C189.591 253.996 189.635 254.054 189.692 254.098C189.749 254.141 189.817 254.167 189.889 254.174C189.936 254.177 189.984 254.169 190.028 254.152C190.073 254.135 190.113 254.108 190.146 254.074C190.18 254.041 190.205 254 190.222 253.955C190.238 253.91 190.245 253.863 190.241 253.815C190.135 250.348 188.812 247.029 186.504 244.439C186.472 244.403 186.434 244.374 186.391 244.355C186.347 244.335 186.3 244.325 186.253 244.325C186.205 244.325 186.158 244.335 186.115 244.355C186.072 244.374 186.033 244.403 186.002 244.439C185.944 244.524 185.92 244.627 185.932 244.729C185.944 244.831 185.992 244.925 186.067 244.995C188.178 247.43 189.397 250.511 189.524 253.731C189.526 253.799 189.541 253.866 189.566 253.929Z" fill="#F0F0F0"/>
<path d="M192.86 252.524C192.886 252.589 192.929 252.647 192.985 252.69C193.041 252.733 193.107 252.76 193.177 252.769C193.225 252.773 193.273 252.766 193.318 252.749C193.363 252.732 193.403 252.706 193.437 252.672C193.471 252.638 193.496 252.596 193.512 252.551C193.528 252.506 193.534 252.458 193.53 252.41C193.53 247.202 189.846 243.165 189.679 243.004C189.648 242.968 189.61 242.94 189.567 242.92C189.524 242.901 189.478 242.891 189.431 242.891C189.384 242.891 189.337 242.901 189.294 242.92C189.251 242.94 189.213 242.968 189.182 243.004C189.122 243.087 189.093 243.188 189.102 243.291C189.111 243.393 189.156 243.489 189.23 243.56C189.266 243.596 192.818 247.501 192.818 252.338C192.818 252.403 192.833 252.466 192.86 252.524Z" fill="#EBEBEB"/>
<path d="M218.174 153.483C215.967 156.784 207.565 168.259 207.565 168.259C205.107 165.419 202.183 161.921 199.725 158.889C196.472 154.912 195.18 154.105 193.452 147.885C193.022 146.325 191.832 144.567 191.264 143.628C190.444 142.211 189.889 140.657 189.625 139.041C189.535 138.246 187.502 138.473 187.125 141.038C186.874 142.36 187.311 143.664 187.311 144.973C187.311 145.374 187.532 146.217 187.03 146.169C183.998 145.733 181.767 142.288 178.143 139.848C176.834 138.975 173.485 138.054 172.761 139.968C172.702 140.428 173.031 140.745 173.156 141.164C173.165 141.219 173.165 141.276 173.156 141.331C173.159 141.532 173.139 141.733 173.096 141.929C173.013 142.312 172.851 142.671 172.773 143.054C172.654 143.637 172.725 144.243 172.977 144.782C173.214 145.16 173.414 145.561 173.575 145.978C173.456 146.79 173.568 147.618 173.898 148.37C174.209 149.029 174.597 149.649 175.052 150.218C175.297 150.625 175.498 151.058 175.65 151.509C176.032 152.237 176.531 152.898 177.127 153.465C179.048 155.604 181.263 157.46 183.705 158.978C184.823 159.63 186.013 160.174 187.072 160.934C187.86 161.491 188.563 162.16 189.159 162.919C189.88 163.903 190.519 164.945 191.066 166.035V166.095C195.922 174.52 196.353 177.63 201.465 184.304C205.783 189.644 208.791 187.377 215.309 181.098C223.322 173.378 227.61 168.935 227.61 168.935L229.631 143.275C224.895 144.86 220.386 150.182 218.174 153.483Z" fill="#C8856A"/>
<path d="M187.4 148.304C187.168 149.634 187.25 151 187.64 152.292C188.029 153.585 188.715 154.769 189.643 155.749C186.874 155.008 185.756 151.438 187.4 148.304Z" fill="#AF6152"/>
<path d="M232.083 142.479C227.634 143.233 224.171 144.991 218.574 152.394C212.977 159.798 207.565 167.865 207.565 167.865L203.062 162.937C204.491 163.762 204.258 170.071 201.944 172.93C200.493 174.662 198.484 175.836 196.263 176.249C197.555 178.75 199.016 181.162 200.634 183.466C202.924 186.606 204.39 187.407 206.351 187.407C208.312 187.407 210.465 186.277 215.584 181.427C220.703 176.577 228.83 168.797 228.83 168.797L232.083 142.479Z" fill="#FF7979"/>
<path opacity="0.55" d="M232.083 142.479C227.634 143.233 224.171 144.991 218.574 152.394C212.977 159.798 207.565 167.865 207.565 167.865L203.062 162.937C204.491 163.762 204.258 170.071 201.944 172.93C200.493 174.662 198.484 175.836 196.263 176.249C197.555 178.75 199.016 181.162 200.634 183.466C202.924 186.606 204.39 187.407 206.351 187.407C208.312 187.407 210.465 186.277 215.584 181.427C220.703 176.577 228.83 168.797 228.83 168.797L232.083 142.479Z" fill="white"/>
<path opacity="0.35" d="M207.565 167.864C209.957 170.496 211.626 175.082 211.458 177.432C212.457 174.664 211.458 169.951 208.468 166.549L207.565 167.864Z" fill="#FF7979"/>
<path opacity="0.35" d="M198.218 179.622C198.778 179.501 199.327 179.331 199.857 179.113C200.94 178.671 201.928 178.026 202.769 177.212C204.383 175.66 205.435 173.615 205.759 171.399C205.759 171.285 205.896 171.321 205.89 171.399C205.767 173.816 204.71 176.091 202.942 177.744C202.04 178.564 200.996 179.215 199.863 179.663C199.403 179.842 198.931 179.988 198.451 180.1L198.158 179.61L198.218 179.622Z" fill="#FF7979"/>
<path d="M224.554 158.637C225.152 146.205 227.987 142.773 234.296 142.073L244.701 140.979C247.793 141.612 258.419 144.997 261.995 146.241C264.303 147.036 265.296 151.934 265.786 159.6C266.193 165.825 266.253 171.046 266.044 179.651C265.876 186.869 265.697 195.086 263.496 205.114C254.879 208.379 230.008 205.263 220.069 193.896C220.865 191.324 224.052 186.678 224.554 181.511C224.249 170.687 224.363 162.542 224.554 158.637Z" fill="#263238"/>
<path d="M262.229 146.08L254.455 143.341C254.455 143.341 253.049 146.612 250.035 152.909C247.021 159.206 246.92 162.022 246.639 172.96C246.358 183.897 244.354 203.123 243.051 207.56C247.871 208.23 252.021 215.214 264.423 213.05C264.423 213.05 267.025 200.384 267.413 178.802C267.647 167.59 267.706 149.237 262.229 146.08Z" fill="#FF7979"/>
<path opacity="0.35" d="M262.229 146.08L254.455 143.341C254.455 143.341 253.049 146.612 250.035 152.909C247.021 159.206 246.92 162.022 246.639 172.96C246.358 183.897 244.354 203.123 243.051 207.56C247.871 208.23 252.021 215.214 264.423 213.05C264.423 213.05 267.025 200.384 267.413 178.802C267.647 167.59 267.706 149.237 262.229 146.08Z" fill="white"/>
<path d="M247.075 163.122C248.271 153.303 252.403 152.795 253.354 156.018C256.942 150.672 257.08 146.079 257.02 144.243C256.045 142.557 255.286 141.14 254.963 140.5C254.532 139.663 254.042 139.836 254.042 139.836L254.012 142.33C254.012 142.33 253.414 145.188 250.508 148.794C248.349 151.449 247.572 154.84 247.075 163.122Z" fill="#FF7979"/>
<path opacity="0.55" d="M247.075 163.122C248.271 153.303 252.403 152.795 253.354 156.018C256.942 150.672 257.08 146.079 257.02 144.243C256.045 142.557 255.286 141.14 254.963 140.5C254.532 139.663 254.042 139.836 254.042 139.836L254.012 142.33C254.012 142.33 253.414 145.188 250.508 148.794C248.349 151.449 247.572 154.84 247.075 163.122Z" fill="white"/>
<path d="M239.995 142.42C235.57 144.142 232.322 149.058 231.276 155.857C230.229 162.656 229.38 180.01 228.645 185.159C227.909 190.308 224.632 199.236 224.632 199.236C224.632 199.236 219.196 196.999 217.695 192.736C220.195 189.476 222.515 184.962 222.946 180.668C223.376 176.374 222.982 162.758 223.627 157.537C224.273 152.317 224.823 145.117 231.007 142.707C233.668 141.666 239.947 141.26 239.947 141.26L239.995 142.42Z" fill="#FF7979"/>
<path opacity="0.35" d="M239.995 142.42C235.57 144.142 232.322 149.058 231.276 155.857C230.229 162.656 229.38 180.01 228.645 185.159C227.909 190.308 224.632 199.236 224.632 199.236C224.632 199.236 219.196 196.999 217.695 192.736C220.195 189.476 222.515 184.962 222.946 180.668C223.376 176.374 222.982 162.758 223.627 157.537C224.273 152.317 224.823 145.117 231.007 142.707C233.668 141.666 239.947 141.26 239.947 141.26L239.995 142.42Z" fill="white"/>
<path d="M230.827 159.78C231.425 154.78 234.277 145.828 239.695 144.004C239.902 143.501 240.012 142.964 240.018 142.42L239.97 139.818C238.347 140.388 236.796 141.144 235.348 142.073C233.01 143.586 228.973 148.418 227.933 152.311C230.229 150.319 231.186 153.56 230.827 159.78Z" fill="#FF7979"/>
<path opacity="0.55" d="M230.827 159.78C231.425 154.78 234.277 145.828 239.695 144.004C239.902 143.501 240.012 142.964 240.018 142.42L239.97 139.818C238.347 140.388 236.796 141.144 235.348 142.073C233.01 143.586 228.973 148.418 227.933 152.311C230.229 150.319 231.186 153.56 230.827 159.78Z" fill="white"/>
<path d="M254.006 135.931C254.604 132.433 258.114 128.797 259.699 125.765C261.224 122.829 262.139 120.551 261.983 117.782C261.888 116.144 260.865 113.919 259.651 113.447C261.086 107.365 256.53 104.512 254.108 103.926C252.969 103.683 251.849 103.363 250.753 102.97C249.437 102.414 249.144 101.349 248.086 100.44C246.262 98.8793 243.176 98.8255 241.992 101.176C240.796 99.591 239.128 99.6268 237.208 100.099C236.4 100.278 235.69 100.757 235.223 101.441C234.755 102.124 234.565 102.959 234.691 103.777C232.143 102.336 229.787 104.124 229.548 105.625C229.368 106.731 229.602 107.67 228.872 108.657C228.047 109.775 226.48 109.745 226.038 108.842C225.768 110.415 226.378 111.617 228.083 111.539C227.793 111.974 227.602 112.467 227.522 112.983C227.442 113.5 227.477 114.027 227.622 114.529C227.825 115.161 228.215 115.715 228.741 116.12C229.266 116.525 229.902 116.76 230.564 116.795C230.738 117.663 230.774 118.452 231.312 119.187C231.821 119.947 232.506 120.573 233.309 121.011C235.887 122.255 238.745 122.668 241.526 123.26L244.827 123.959C245.018 124.001 246.023 124.067 246.13 124.235L254.006 135.931Z" fill="#263238"/>
<path d="M258.264 131.423C255.8 132.882 254.137 131.285 254.137 131.285L253.994 142.773C252.05 147.7 244.264 150.164 239.935 150.02C239.261 147.529 239.282 144.901 239.995 142.42L239.947 139.256C238.549 139.276 237.151 139.209 235.761 139.053C233.022 138.664 230.977 136.428 230.199 133.45C229.348 129.578 229.253 125.578 229.918 121.669C230.109 120.721 230.163 119.75 230.08 118.787C229.829 116.233 230.295 114.75 230.965 112.61C233.997 110.218 240.987 109.398 247.482 113.387C246.71 117.262 248.199 120.342 251.016 121.831C250.878 122.877 250.735 125.52 252.451 125.479C253.695 125.449 253.785 123.894 255.064 122.53C256.344 121.167 259.31 120.814 260.446 122.841C262.067 125.67 260.973 129.826 258.264 131.423Z" fill="#C8856A"/>
<path d="M239.947 139.256C244.301 138.766 247.608 138.305 249.892 135.166C250.956 133.549 251.844 131.823 252.541 130.017C252.541 130.017 252.081 133.868 250.645 136.475C249.539 138.485 246.794 140.147 239.965 140.703L239.947 139.256Z" fill="#AF6152"/>
<path d="M242.135 122.405C242.148 122.645 242.232 122.877 242.376 123.07C242.519 123.263 242.717 123.41 242.943 123.492C243.17 123.574 243.415 123.587 243.649 123.53C243.883 123.473 244.095 123.348 244.259 123.172C244.423 122.995 244.531 122.774 244.569 122.536C244.608 122.298 244.576 122.055 244.477 121.835C244.378 121.615 244.217 121.43 244.013 121.302C243.809 121.173 243.572 121.108 243.331 121.113C243.002 121.129 242.693 121.273 242.469 121.514C242.245 121.756 242.126 122.076 242.135 122.405Z" fill="#263238"/>
<path d="M242.488 118.404L245.257 119.546C245.402 119.167 245.395 118.747 245.238 118.373C245.081 117.999 244.786 117.7 244.414 117.537C244.231 117.465 244.035 117.429 243.838 117.434C243.641 117.438 243.447 117.482 243.268 117.563C243.088 117.644 242.927 117.76 242.793 117.905C242.659 118.049 242.555 118.219 242.488 118.404Z" fill="#263238"/>
<path d="M231.928 119.152L234.756 118.117C234.699 117.929 234.603 117.755 234.476 117.605C234.348 117.456 234.191 117.334 234.015 117.247C233.838 117.16 233.646 117.11 233.45 117.1C233.253 117.091 233.057 117.121 232.873 117.19C232.493 117.334 232.184 117.617 232.008 117.982C231.832 118.347 231.803 118.766 231.928 119.152Z" fill="#263238"/>
<path d="M232.621 122.028C232.659 122.257 232.762 122.47 232.919 122.641C233.075 122.812 233.278 122.934 233.503 122.992C233.727 123.05 233.964 123.041 234.184 122.967C234.403 122.893 234.597 122.756 234.74 122.574C234.884 122.392 234.972 122.172 234.993 121.941C235.013 121.711 234.967 121.479 234.858 121.274C234.75 121.069 234.584 120.9 234.381 120.787C234.178 120.675 233.947 120.624 233.716 120.641C233.552 120.659 233.394 120.709 233.25 120.788C233.106 120.868 232.979 120.976 232.877 121.105C232.775 121.234 232.7 121.382 232.656 121.541C232.612 121.699 232.6 121.865 232.621 122.028Z" fill="#263238"/>
<path d="M234.35 126.531L238.601 128.438L239.947 120.066C238.362 119.516 236.311 123.349 234.35 126.531Z" fill="#AF6152"/>
<path d="M242.597 130.19L237.466 131.267C237.521 131.609 237.645 131.936 237.829 132.229C238.014 132.522 238.256 132.775 238.541 132.972C238.826 133.169 239.148 133.307 239.487 133.376C239.826 133.446 240.176 133.447 240.516 133.378C241.207 133.217 241.809 132.796 242.196 132.202C242.584 131.608 242.728 130.888 242.597 130.19Z" fill="#AF6152"/>
<path d="M241.974 131.022C242.185 130.998 242.397 130.998 242.608 131.022C242.544 131.581 242.309 132.107 241.934 132.527C241.559 132.947 241.063 133.24 240.515 133.366C240.238 133.411 239.955 133.411 239.678 133.366C239.689 132.756 239.934 132.174 240.361 131.738C240.787 131.302 241.365 131.046 241.974 131.022Z" fill="#FFA8A7"/>
<path opacity="0.15" d="M189.494 215.226C189.85 214.689 190.27 214.198 190.744 213.761C195.528 209.336 204.498 203.481 212.152 198.614L246.89 218.677C246.939 218.705 246.979 218.746 247.006 218.795C247.034 218.843 247.049 218.899 247.049 218.955C247.049 219.011 247.034 219.066 247.006 219.115C246.979 219.164 246.939 219.204 246.89 219.233L221.661 233.818L189.494 215.226Z" fill="black"/>
<path d="M178.963 205.024V205.587C178.963 205.992 179.069 206.391 179.272 206.743C179.474 207.094 179.766 207.386 180.117 207.59L220.506 230.912C220.858 231.111 221.256 231.216 221.66 231.217C222.067 231.217 222.468 231.11 222.82 230.906L244.839 218.234C245.188 218.031 245.478 217.74 245.68 217.389C245.881 217.039 245.987 216.641 245.987 216.237V215.459C245.986 215.512 245.972 215.563 245.946 215.608C245.92 215.653 245.882 215.691 245.837 215.717L221.66 229.68L178.963 205.024Z" fill="#37474F"/>
<path d="M221.66 229.68V231.217C221.256 231.216 220.858 231.111 220.506 230.912L180.117 207.59C179.765 207.387 179.472 207.095 179.269 206.744C179.065 206.392 178.957 205.993 178.957 205.587V205.024L221.66 229.68Z" fill="#263238"/>
<path d="M178.957 205.025L202.907 191.199C203.117 191.078 203.355 191.015 203.598 191.015C203.84 191.015 204.078 191.078 204.288 191.199L245.837 215.191C245.883 215.218 245.921 215.257 245.947 215.304C245.974 215.351 245.987 215.403 245.987 215.457C245.987 215.51 245.974 215.563 245.947 215.609C245.921 215.656 245.883 215.695 245.837 215.723L221.66 229.68L178.957 205.025Z" fill="#455A64"/>
<path d="M221.881 227.647L234.798 220.196L197.029 198.387L184.04 205.802L221.881 227.647Z" fill="#37474F"/>
<path d="M184.04 205.802L184.536 206.083L197.029 198.955L234.302 220.483L234.798 220.196L197.029 198.387L184.04 205.802Z" fill="#263238"/>
<path d="M228.233 206.92L227.993 207.058L221.661 210.712L210.4 204.211L210.167 204.08L216.739 200.289L228.233 206.92Z" fill="#263238"/>
<path d="M227.993 207.058L221.66 210.712L210.399 204.211L216.738 200.558L227.993 207.058Z" fill="#37474F"/>
<path d="M215.507 209.671C217.534 207.662 220.47 204.887 222.94 204.062C223.507 203.842 224.089 203.66 224.68 203.518C223.823 203.404 222.974 203.236 222.138 203.015C221.301 202.76 220.557 202.265 219.998 201.592C219.782 201.317 219.627 200.874 219.902 200.653C220.002 200.572 220.126 200.526 220.255 200.522C222.103 200.468 223.562 200.181 225.242 200.055C225.995 199.949 226.76 199.963 227.509 200.097C228.196 200.288 228.884 200.486 229.56 200.695C232.633 201.759 235.54 201.472 239.774 199.535C244.007 197.597 259.292 188.173 259.292 188.173L256.051 206.113L243.983 210.801L243.858 210.849C242.895 211.208 242.022 211.961 239.714 212.673C236.975 213.51 233.477 212.517 231.097 212.392C228.716 212.266 224.668 213.367 222.455 214.258C220.243 215.149 217.606 211.758 216.475 212.165C215.345 212.571 213.485 211.692 215.507 209.671Z" fill="#C8856A"/>
<path d="M225.703 202.208C226.851 202.156 227.998 202.344 229.07 202.758C227.581 202.83 226.107 203.085 224.68 203.518C223.823 203.404 222.974 203.237 222.139 203.015C221.402 202.783 220.735 202.372 220.195 201.819C221.523 202.722 224.1 202.375 225.703 202.208Z" fill="#AF6152"/>
<path d="M221.008 230.021C220.627 230.169 220.218 230.229 219.81 230.198C219.402 230.167 219.007 230.045 218.652 229.842L178.437 206.621C178.088 206.42 177.788 206.144 177.559 205.813C177.329 205.482 177.176 205.105 177.109 204.708L172.702 178.45C172.678 178.301 172.666 178.151 172.666 178.001C172.667 177.272 172.957 176.573 173.473 176.058L215.28 200.193C215.537 200.341 215.758 200.545 215.928 200.789C216.097 201.033 216.211 201.311 216.26 201.604L221.008 230.021Z" fill="#263238"/>
<path d="M221.66 229.68L221.385 229.842C221.263 229.908 221.137 229.968 221.008 230.021L216.224 201.604C216.175 201.311 216.061 201.033 215.892 200.789C215.722 200.545 215.501 200.341 215.243 200.193L173.449 176.057C173.619 175.893 173.807 175.751 174.011 175.633L215.871 199.81C216.129 199.96 216.35 200.165 216.519 200.41C216.689 200.654 216.802 200.934 216.852 201.227L221.66 229.68Z" fill="#455A64"/>
<path d="M215.878 200.725L216.524 200.354C216.72 200.61 216.852 200.909 216.906 201.227L221.69 229.68L221.415 229.841C221.293 229.908 221.168 229.968 221.039 230.021L216.255 201.604C216.201 201.285 216.071 200.984 215.878 200.725Z" fill="#37474F"/>
<path d="M198.362 205.784C198.063 204.026 196.251 201.693 194.308 200.569C192.364 199.445 191.025 199.971 191.318 201.717C191.611 203.463 193.429 205.814 195.372 206.932C197.316 208.05 198.655 207.542 198.362 205.784Z" fill="#FF7979"/>
<path d="M247.571 196.575C254.012 191.91 259.316 188.203 259.316 188.203L257.474 168.409C257.474 168.409 256.081 158.62 258.287 153.076C260.578 147.329 262.838 146.498 262.838 146.498C265.089 147.324 267.192 148.505 269.069 149.996C271.563 152.179 272.753 157.25 273.357 164.402C273.883 170.681 274.876 186.427 275.031 190.116C275.235 194.781 275.031 198.524 270.08 200.779C264.871 203.171 249.258 208.493 249.258 208.493L247.571 196.575Z" fill="#C8856A"/>
<path d="M262.229 146.08C267.294 147.7 269.877 148.633 272.018 154.565C274.159 160.497 274.081 171.393 274.733 180.124C275.385 188.855 275.869 194.553 274.47 197.31C273.704 198.823 272.305 200.211 267.294 202.094C262.282 203.978 257.457 205.682 257.457 205.682C257.457 205.682 256.978 197.968 251.477 192.777L259.035 188.179C259.035 188.179 257.295 170.352 256.877 165.455C256.458 160.557 255.944 150.301 262.229 146.08Z" fill="#FF7979"/>
<path opacity="0.55" d="M262.229 146.08C267.294 147.7 269.877 148.633 272.018 154.565C274.159 160.497 274.081 171.393 274.733 180.124C275.385 188.855 275.869 194.553 274.47 197.31C273.704 198.823 272.305 200.211 267.294 202.094C262.282 203.978 257.457 205.682 257.457 205.682C257.457 205.682 256.978 197.968 251.477 192.777L259.035 188.179C259.035 188.179 257.295 170.352 256.877 165.455C256.458 160.557 255.944 150.301 262.229 146.08Z" fill="white"/>
<path opacity="0.35" d="M259.029 188.209C261.983 186.815 267.856 188.071 269.112 189.13C267.617 186.546 263.622 185.619 258.832 186.217L259.029 188.209Z" fill="#FF7979"/>
<path opacity="0.35" d="M257.139 193.585C258.051 194.254 258.789 195.132 259.292 196.144C259.818 197.085 260.219 198.09 260.488 199.134C260.8 200.34 260.971 201.578 260.996 202.824C261.023 203.356 261.023 203.889 260.996 204.42L260.434 204.624C260.594 202.846 260.446 201.053 259.998 199.326C259.715 198.296 259.313 197.303 258.802 196.365C258.255 195.445 257.656 194.557 257.008 193.704C257.026 193.674 257.038 193.531 257.139 193.585Z" fill="#FF7979"/>
<path d="M248.547 83.3971L251.244 78.332L249.073 72.077V68.2498L255.705 72.077V75.9101L252.852 80.8436C252.809 80.9204 252.742 80.9812 252.661 81.0171L248.547 83.3971Z" fill="#FF7979"/>
<path opacity="0.3" d="M248.547 83.3971L251.244 78.332L249.073 72.077V68.2498L255.705 72.077V75.9101L252.852 80.8436C252.809 80.9204 252.742 80.9812 252.661 81.0171L248.547 83.3971Z" fill="black"/>
<path d="M236.646 40.1199C236.684 39.4312 236.884 38.7611 237.229 38.1637C237.574 37.5664 238.054 37.0586 238.632 36.6814L240.252 35.7426C240.869 35.43 241.55 35.2671 242.241 35.2671C242.932 35.2671 243.613 35.43 244.229 35.7426L264.4 47.3677C264.98 47.7472 265.463 48.2587 265.808 48.8605C266.153 49.4623 266.351 50.1372 266.385 50.8301V78.1467C266.348 78.8364 266.148 79.5075 265.803 80.1059C265.459 80.7043 264.978 81.2131 264.4 81.5912L262.779 82.5241C262.163 82.8367 261.482 82.9995 260.791 82.9995C260.1 82.9995 259.419 82.8367 258.802 82.5241L251.543 78.3381L248.696 83.2656C248.656 83.3369 248.596 83.395 248.523 83.4329C248.451 83.4709 248.369 83.487 248.287 83.4794C248.206 83.4718 248.128 83.4408 248.064 83.3902C248 83.3395 247.951 83.2713 247.925 83.1938L244.935 74.5109L238.644 70.9229C238.066 70.5448 237.585 70.036 237.24 69.4376C236.895 68.8392 236.696 68.1681 236.658 67.4784L236.646 40.1199Z" fill="#FF7979"/>
<path opacity="0.3" d="M266.385 78.1229C266.348 78.8126 266.149 79.4837 265.804 80.0821C265.459 80.6805 264.978 81.1893 264.4 81.5674L262.779 82.5242C262.219 82.8059 261.605 82.9659 260.979 82.9937C260.352 83.0215 259.727 82.9166 259.144 82.6857C260.082 83.0385 260.794 82.5122 260.794 81.376V54.0415C260.765 53.3474 260.559 52.6723 260.196 52.08L265.793 48.8508C266.156 49.4409 266.362 50.1141 266.391 50.8063L266.385 78.1229Z" fill="black"/>
<path opacity="0.3" d="M236.712 39.5577C236.945 38.7145 237.711 38.4454 238.631 38.9597L258.802 50.5848C259.392 50.9477 259.877 51.4591 260.207 52.0679L265.799 48.8387C265.465 48.2341 264.983 47.7239 264.399 47.3556L244.235 35.7425C243.617 35.4326 242.935 35.2712 242.243 35.2712C241.552 35.2712 240.87 35.4326 240.252 35.7425L238.631 36.6813C238.134 37.0061 237.707 37.4284 237.377 37.9228C237.047 38.4172 236.821 38.9734 236.712 39.5577Z" fill="white"/>
<path d="M241.424 50.0886C241.597 55.1477 242.734 65.1881 249.043 71.2638C253.474 68.8718 255.621 61.9051 255.471 57.5995C255.464 57.3983 255.383 57.2067 255.244 57.0613C255.136 56.9479 255.006 56.8583 254.861 56.7982C252.936 56.0208 249.969 52.7557 248.522 49.4846C248.421 49.2514 248.271 49.1797 248.116 49.2574C248.064 49.29 248.018 49.3303 247.978 49.377V49.4069C246.615 51.1052 243.828 51.2009 241.92 49.8375C241.777 49.7358 241.657 49.7059 241.58 49.7478C241.448 49.8135 241.412 49.9212 241.424 50.0886Z" fill="#FAFAFA"/>
</svg>
