<svg width="158" height="158" viewBox="0 0 158 158" fill="none" xmlns="http://www.w3.org/2000/svg">
<path d="M59.25 103.688V148.125L79 138.25L106.156 153.062V101.219C106.156 101.219 82.7031 117.061 59.25 103.688Z" fill="#FF7979"/>
<path d="M111.094 56.7812C111.092 64.6504 108.199 72.2447 102.965 78.1207C97.7305 83.9967 90.5199 87.7448 82.7032 88.6528C74.8987 87.7296 67.7041 83.9749 62.4836 78.1004C57.263 72.226 54.3794 64.6402 54.3794 56.7812C54.3794 48.9223 57.263 41.3365 62.4836 35.462C67.7041 29.5876 74.8987 25.8328 82.7032 24.9097C90.5199 25.8177 97.7305 29.5658 102.965 35.4418C108.199 41.3178 111.092 48.912 111.094 56.7812Z" fill="#FFA95A"/>
<path d="M82.7032 5.08569C69.6282 6.01655 57.3915 11.8673 48.4579 21.4596C39.5242 31.052 34.5571 43.6732 34.5571 56.7813C34.5571 69.8895 39.5242 82.5107 48.4579 92.103C57.3915 101.695 69.6282 107.546 82.7032 108.477C95.7783 107.546 108.015 101.695 116.949 92.103C125.882 82.5107 130.849 69.8895 130.849 56.7813C130.849 43.6732 125.882 31.052 116.949 21.4596C108.015 11.8673 95.7783 6.01655 82.7032 5.08569ZM79.0001 88.8751C72.6525 88.8751 66.4475 86.9928 61.1698 83.4663C55.892 79.9398 51.7784 74.9274 49.3493 69.0631C46.9202 63.1987 46.2847 56.7457 47.523 50.5201C48.7614 44.2946 51.818 38.576 56.3064 34.0876C60.7948 29.5992 66.5133 26.5426 72.7389 25.3042C78.9645 24.0659 85.4175 24.7015 91.2818 27.1306C97.1462 29.5597 102.159 33.6732 105.685 38.951C109.212 44.2288 111.094 50.4338 111.094 56.7813C111.094 65.2931 107.713 73.4563 101.694 79.475C95.675 85.4938 87.5119 88.8751 79.0001 88.8751Z" fill="#FF7979"/>
<path d="M44.4375 56.7812C44.4375 63.6171 46.4646 70.2994 50.2623 75.9831C54.0601 81.6669 59.458 86.0969 65.7735 88.7128C72.089 91.3288 79.0383 92.0132 85.7428 90.6796C92.4473 89.346 98.6057 86.0543 103.439 81.2206C108.273 76.387 111.565 70.2285 112.898 63.5241C114.232 56.8196 113.548 49.8702 110.932 43.5548C108.316 37.2393 103.886 31.8414 98.2019 28.0436C92.5181 24.2458 85.8358 22.2187 79 22.2188C69.8367 22.2292 61.0516 25.874 54.5722 32.3534C48.0927 38.8329 44.448 47.6179 44.4375 56.7812ZM108.625 56.7812C108.625 62.6405 106.888 68.3682 103.632 73.24C100.377 78.1118 95.7503 81.9089 90.337 84.1512C84.9237 86.3934 78.9671 86.9801 73.2204 85.837C67.4738 84.6939 62.1951 81.8724 58.052 77.7293C53.9088 73.5862 51.0873 68.3075 49.9442 62.5608C48.8012 56.8141 49.3878 50.8575 51.6301 45.4443C53.8723 40.031 57.6694 35.4042 62.5412 32.149C67.413 28.8937 73.1407 27.1562 79 27.1562C86.8544 27.1647 94.3847 30.2887 99.9386 35.8426C105.493 41.3965 108.617 48.9268 108.625 56.7812Z" fill="#262626"/>
<path d="M95.6692 10.2898C96.4328 10.5647 97.1883 10.8568 97.9355 11.1663C98.2354 11.2899 98.5567 11.3533 98.881 11.3527C99.2054 11.3521 99.5265 11.2876 99.8259 11.1629C100.125 11.0382 100.397 10.8556 100.626 10.6258C100.855 10.3959 101.036 10.1232 101.16 9.82326C101.283 9.52354 101.347 9.20238 101.346 8.87813C101.346 8.55388 101.282 8.23288 101.157 7.93348C101.033 7.63408 100.851 7.36213 100.621 7.13317C100.391 6.90421 100.119 6.72272 99.8192 6.59907C98.9995 6.26085 98.1725 5.93744 97.3331 5.63872C97.0277 5.52947 96.7038 5.48143 96.3798 5.49737C96.0559 5.5133 95.7382 5.59288 95.445 5.73157C95.1518 5.87027 94.8888 6.06535 94.671 6.30569C94.4532 6.54603 94.2848 6.82692 94.1756 7.13232C94.0663 7.43771 94.0183 7.76164 94.0342 8.0856C94.0502 8.40956 94.1298 8.72721 94.2684 9.02042C94.4071 9.31362 94.6022 9.57664 94.8426 9.79445C95.0829 10.0123 95.3638 10.1806 95.6692 10.2898Z" fill="#262626"/>
<path d="M133.313 56.7812C133.351 47.4029 130.943 38.1767 126.327 30.0129C121.711 21.8491 115.047 15.0298 106.991 10.228C106.43 9.89975 105.763 9.80553 105.134 9.9658C104.504 10.1261 103.963 10.5279 103.628 11.0842C103.293 11.6406 103.191 12.3066 103.343 12.9379C103.496 13.5692 103.891 14.115 104.443 14.457C114.682 20.6075 122.345 30.2603 126.013 41.6277C129.681 52.995 129.105 65.3064 124.392 76.2816C119.679 87.2568 111.148 96.152 100.379 101.32C89.6103 106.487 77.3337 107.577 65.823 104.387C54.3124 101.197 44.3478 93.9441 37.775 83.9708C31.2021 73.9975 28.4664 61.98 30.0745 50.1443C31.6826 38.3087 37.5257 27.4568 46.5213 19.5988C55.5169 11.7408 67.0556 7.40919 79 7.40625C82.2238 7.40581 85.44 7.71834 88.6034 8.33943C88.9216 8.402 89.2491 8.40129 89.567 8.33732C89.8849 8.27336 90.1871 8.1474 90.4564 7.96664C90.7256 7.78588 90.9566 7.55386 91.1362 7.28383C91.3158 7.01379 91.4404 6.71103 91.503 6.39282C91.5656 6.07462 91.5648 5.74721 91.5009 5.42928C91.4369 5.11136 91.311 4.80914 91.1302 4.53989C90.9494 4.27065 90.7174 4.03964 90.4474 3.86006C90.1773 3.68048 89.8746 3.55585 89.5564 3.49328C81.6822 1.94256 73.5623 2.15444 65.7797 4.11371C57.9971 6.07297 50.7449 9.73102 44.5435 14.8252C38.3422 19.9195 33.3457 26.3235 29.9126 33.5776C26.4796 40.8316 24.6952 48.7558 24.6875 56.7812C24.6933 65.8185 26.9541 74.7114 31.2649 82.6542C35.5758 90.597 41.8005 97.3386 49.375 102.268V153.062C49.3749 153.491 49.4863 153.912 49.6982 154.284C49.9101 154.656 50.2152 154.967 50.5835 155.186C50.9519 155.404 51.3708 155.524 51.799 155.531C52.2273 155.539 52.6503 155.435 53.0263 155.23L79 141.062L104.974 155.23C105.35 155.435 105.773 155.539 106.201 155.531C106.629 155.524 107.048 155.404 107.416 155.186C107.785 154.967 108.09 154.656 108.302 154.284C108.514 153.912 108.625 153.491 108.625 153.062V102.268C116.199 97.3386 122.424 90.597 126.735 82.6542C131.046 74.7114 133.307 65.8185 133.313 56.7812V56.7812ZM103.688 148.903L80.1825 136.082C79.8198 135.885 79.4132 135.781 79 135.781C78.5868 135.781 78.1802 135.885 77.8175 136.082L54.3125 148.903V105.134C61.9524 109.051 70.4146 111.094 79 111.094C87.5854 111.094 96.0476 109.051 103.688 105.134V148.903Z" fill="#262626"/>
<path d="M69.125 49.3749C69.125 50.0296 69.3851 50.6576 69.8481 51.1206C70.3111 51.5835 70.939 51.8436 71.5938 51.8436C72.2485 51.8436 72.8764 51.5835 73.3394 51.1206C73.8024 50.6576 74.0625 50.0296 74.0625 49.3749C74.0625 48.3983 74.3521 47.4437 74.8946 46.6318C75.4372 45.8198 76.2083 45.1869 77.1105 44.8132C78.0127 44.4395 79.0055 44.3417 79.9633 44.5323C80.921 44.7228 81.8008 45.193 82.4913 45.8835C83.1819 46.5741 83.6521 47.4538 83.8426 48.4116C84.0331 49.3694 83.9354 50.3622 83.5617 51.2644C83.188 52.1666 82.5551 52.9377 81.7431 53.4803C80.9312 54.0228 79.9765 54.3124 79 54.3124C78.3452 54.3124 77.7173 54.5725 77.2543 55.0355C76.7913 55.4984 76.5313 56.1264 76.5313 56.7811C76.5313 57.4359 76.7913 58.0638 77.2543 58.5268C77.7173 58.9898 78.3452 59.2499 79 59.2499C79.9765 59.2499 80.9312 59.5395 81.7431 60.082C82.5551 60.6245 83.188 61.3957 83.5617 62.2979C83.9354 63.2001 84.0331 64.1929 83.8426 65.1506C83.6521 66.1084 83.1819 66.9882 82.4913 67.6787C81.8008 68.3692 80.921 68.8395 79.9633 69.03C79.0055 69.2205 78.0127 69.1227 77.1105 68.749C76.2083 68.3753 75.4372 67.7425 74.8946 66.9305C74.3521 66.1185 74.0625 65.1639 74.0625 64.1874C74.0625 63.5326 73.8024 62.9047 73.3394 62.4417C72.8764 61.9787 72.2485 61.7186 71.5938 61.7186C70.939 61.7186 70.3111 61.9787 69.8481 62.4417C69.3851 62.9047 69.125 63.5326 69.125 64.1874C69.124 65.8382 69.5368 67.4628 70.3258 68.9129C71.1147 70.3629 72.2546 71.592 73.6412 72.4879C75.0277 73.3837 76.6167 73.9176 78.2629 74.0408C79.9091 74.164 81.5599 73.8726 83.0643 73.1932C84.5688 72.5138 85.879 71.468 86.875 70.1516C87.871 68.8352 88.5211 67.29 88.7659 65.6575C89.0106 64.025 88.8422 62.3571 88.276 60.8065C87.7099 59.2559 86.764 57.8719 85.5249 56.7811C86.764 55.6904 87.7099 54.3064 88.276 52.7558C88.8422 51.2051 89.0106 49.5373 88.7659 47.9048C88.5211 46.2722 87.871 44.7271 86.875 43.4107C85.879 42.0942 84.5688 41.0485 83.0643 40.3691C81.5599 39.6897 79.9091 39.3982 78.2629 39.5214C76.6167 39.6447 75.0277 40.1786 73.6412 41.0744C72.2546 41.9702 71.1147 43.1993 70.3258 44.6494C69.5368 46.0994 69.124 47.7241 69.125 49.3749Z" fill="#262626"/>
</svg>
